<?xml version="1.0" encoding="UTF-8"?>
<svg version="1.1" xmlns="http://www.w3.org/2000/svg" width="1940" height="2000">
<path d="M0 0 C1.53599854 0.22574707 1.53599854 0.22574707 3.10302734 0.45605469 C66.58239562 9.90754321 130.89372467 28.44140631 187.46484375 59.109375 C190.52207627 60.75980479 193.62245484 62.29875075 196.75 63.8125 C225.54404911 78.09341952 252.40387442 96.77314321 277.62109375 116.578125 C280.40506252 118.76321321 283.20549762 120.92129665 286.03515625 123.046875 C286.64544678 123.50707031 287.2557373 123.96726563 287.88452148 124.44140625 C289.51624322 125.66823028 291.15249581 126.88902157 292.7890625 128.109375 C293.51867188 128.73328125 294.24828125 129.3571875 295 130 C295 130.66 295 131.32 295 132 C295.53109375 132.21269531 296.0621875 132.42539063 296.609375 132.64453125 C299.92111462 134.52226597 302.51046127 137.07948479 305.25 139.6875 C306.33746322 140.71338397 307.42601934 141.73811058 308.515625 142.76171875 C309.3674939 143.56283081 309.3674939 143.56283081 310.23657227 144.38012695 C311.99221796 145.99285147 313.79133602 147.53950665 315.60546875 149.0859375 C321.09651122 153.86307853 326.19297866 159.04370164 331.32739258 164.19702148 C333.058947 165.933936 334.79578359 167.66543889 336.53320312 169.39648438 C342.2361413 175.09559158 347.79478349 180.83652929 353 187 C354.06847449 188.22686357 355.1387937 189.45212296 356.2109375 190.67578125 C370.81892366 207.44336698 384.77370039 224.15368441 395 244 C395.34659668 244.67256836 395.69319336 245.34513672 396.05029297 246.03808594 C405.25212851 264.16514007 410.98500544 283.36097367 416 303 C416.46212891 304.78664063 416.46212891 304.78664063 416.93359375 306.609375 C420.46889969 321.04368113 422.17826085 335.73578375 423.625 350.5 C423.74810547 351.74442871 423.87121094 352.98885742 423.99804688 354.27099609 C425.54895781 370.767633 426.20810966 387.24629044 426.1875 403.8125 C426.18722809 404.65072296 426.18695618 405.48894592 426.18667603 406.35256958 C426.16315506 422.30449111 425.37838316 438.10348673 424 454 C423.89284668 455.28922363 423.78569336 456.57844727 423.67529297 457.90673828 C420.08469315 500.98800129 413.31730053 543.65078982 404.43170166 585.94177246 C404.01338132 587.93620176 403.59874419 589.93136266 403.18505859 591.92675781 C396.37273133 624.61759553 388.31354064 657.08716316 378.84814453 689.11132812 C377.8136083 692.63482632 376.81795007 696.16847762 375.82495117 699.70385742 C368.45905152 725.84034057 360.27141183 751.64365485 351.30419922 777.27246094 C350.20947972 780.40128483 349.12033887 783.53192301 348.03515625 786.6640625 C346.67680695 790.57680905 345.30480871 794.48451927 343.92333984 798.38916016 C343.24764792 800.29974964 342.57374536 802.21097221 341.90087891 804.12255859 C333.81665957 827.0724835 325.19994588 849.79460532 316.0703125 872.34863281 C314.92518115 875.18534049 313.79079159 878.02622905 312.65625 880.8671875 C304.80705895 900.42444044 296.37938764 919.72298204 287.87957764 939.0045166 C287.12468776 940.71712293 286.37105708 942.43028419 285.61767578 944.14355469 C278.96022163 959.25271077 271.85215778 974.15765296 264.79418945 989.08258057 C262.94790719 992.98797467 261.1103629 996.89719447 259.28515625 1000.8125 C255.49263666 1008.93095012 251.53329035 1016.91783169 247.29638672 1024.81420898 C244.8464419 1029.3805955 242.48434741 1033.97986998 240.1875 1038.625 C231.2437864 1056.65482143 221.71542494 1074.37667104 212 1092 C211.4131543 1093.06798828 210.82630859 1094.13597656 210.22167969 1095.23632812 C201.74568317 1110.65291157 193.05649614 1125.91664059 184 1141 C217.69685768 1137.91682179 250.71200174 1133.63598126 283.92236328 1127.08520508 C284.91578232 1126.89023438 285.90920135 1126.69526367 286.932724 1126.49438477 C288.79892111 1126.12740287 290.66450273 1125.75727038 292.52931213 1125.38330078 C314.65485551 1121.03273508 341.33678859 1119.9911592 363 1127 C363.70592285 1127.22494141 364.4118457 1127.44988281 365.13916016 1127.68164062 C393.01484516 1136.82451269 412.75909305 1154.43914357 426.3125 1180.0625 C429.2493011 1186.18829287 431.31976252 1192.42445525 433 1199 C433.226875 1199.88429688 433.45375 1200.76859375 433.6875 1201.6796875 C439.71617597 1230.56709321 431.41570835 1259.47952585 415.81103516 1283.85742188 C410.50120125 1291.83166588 404.53753927 1298.99636975 398 1306 C396.82820173 1307.3497286 395.66125916 1308.7036933 394.5 1310.0625 C388.20677716 1317.27136496 381.32800025 1323.85620459 374 1330 C373.48679199 1330.43763672 372.97358398 1330.87527344 372.44482422 1331.32617188 C356.15592712 1345.17380327 338.3117659 1357.00278137 320 1368 C318.96230469 1368.62519531 317.92460938 1369.25039062 316.85546875 1369.89453125 C304.52653306 1377.11554784 291.75658896 1383.5742148 279 1390 C277.71295166 1390.65234619 277.71295166 1390.65234619 276.39990234 1391.31787109 C205.67958942 1426.67060363 109.87269053 1438.81874756 32 1430 C29.95435811 1444.1413869 29.34547551 1458.31509172 28.73876953 1472.57928467 C28.43945958 1479.60186942 28.11231051 1486.62319769 27.78515625 1493.64453125 C27.73630468 1494.69687454 27.73630468 1494.69687454 27.68646622 1495.77047729 C25.31273287 1546.73430155 21.38178822 1597.63889463 13 1648 C12.78617676 1649.29486328 12.57235352 1650.58972656 12.35205078 1651.92382812 C-2.83451577 1743.40581466 -32.24043224 1836.11980736 -126.19677734 1923.58300781 C-161.10592441 1948.36769227 -199.74778916 1964.95379188 -241 1976 C-242.48209961 1976.4017041 -242.48209961 1976.4017041 -243.99414062 1976.81152344 C-259.19282265 1980.89468033 -274.50792897 1984.24233386 -289.9375 1987.3125 C-291.20237244 1987.56891266 -291.20237244 1987.56891266 -292.49279785 1987.83050537 C-312.72939966 1991.91087112 -332.68603231 1993.39459146 -353.3125 1993.3125 C-354.29512817 1993.31034485 -355.27775635 1993.3081897 -356.29016113 1993.30596924 C-371.02874538 1993.25422657 -385.50142657 1992.8945134 -400 1990 C-401.00788574 1989.80132324 -402.01577148 1989.60264648 -403.05419922 1989.39794922 C-423.89671379 1985.1414467 -443.30101145 1978.10890726 -462 1968 C-462.5986084 1967.68063477 -463.1972168 1967.36126953 -463.81396484 1967.03222656 C-476.53274754 1960.20311729 -488.03938075 1952.18049132 -498.55859375 1942.2890625 C-500.63446312 1940.34272738 -502.75310651 1938.50857547 -504.9375 1936.6875 C-527.5426514 1916.94844141 -542.78197751 1890.17483558 -555.6875 1863.5 C-556.11466309 1862.6241626 -556.54182617 1861.7483252 -556.98193359 1860.84594727 C-563.95676889 1846.18708415 -569.17454764 1830.89146001 -574.0625 1815.4375 C-575.04996465 1812.33093167 -576.04125246 1809.22560767 -577.03515625 1806.12109375 C-577.27775177 1805.36103027 -577.52034729 1804.6009668 -577.77029419 1803.81787109 C-579.45932894 1798.56623985 -581.27977386 1793.37218122 -583.15234375 1788.18359375 C-585.69540449 1781.0881798 -587.77239089 1773.96720496 -589.5 1766.625 C-589.78915283 1765.40659424 -590.07830566 1764.18818848 -590.3762207 1762.93286133 C-608.25145614 1685.40837071 -609.52516065 1604.42353501 -611.90693188 1525.26194477 C-612.02527219 1521.33644532 -612.14611016 1517.41102413 -612.26696587 1513.48560143 C-612.34969033 1510.75324344 -612.42790268 1508.0207814 -612.50587463 1505.2882843 C-612.55661093 1503.62260327 -612.60753897 1501.95692807 -612.65869141 1500.29125977 C-612.68831892 1499.17970583 -612.68831892 1499.17970583 -612.71854496 1498.04569626 C-612.86002079 1493.61762569 -613.29921607 1489.36543485 -614 1485 C-614.65669678 1485.26627197 -615.31339355 1485.53254395 -615.98999023 1485.80688477 C-638.47733746 1494.85830985 -661.09001328 1501.90114513 -685 1506 C-686.17151611 1506.20834473 -686.17151611 1506.20834473 -687.36669922 1506.42089844 C-699.14164951 1508.47480932 -710.95601428 1509.45825497 -722.875 1510.1875 C-723.90975967 1510.2518222 -723.90975967 1510.2518222 -724.96542358 1510.31744385 C-740.08994573 1511.23607481 -755.12791243 1511.1368879 -770.25 1510.25 C-770.98400024 1510.20709839 -771.71800049 1510.16419678 -772.47424316 1510.11999512 C-786.79964606 1509.25607025 -800.86703249 1507.52656402 -815 1505 C-816.2060791 1504.78859375 -817.4121582 1504.5771875 -818.65478516 1504.359375 C-865.27616578 1496.05288533 -919.33773248 1478.91320497 -950 1440 C-953.3218659 1442.1799745 -956.59164762 1444.40748666 -959.8125 1446.734375 C-984.09317789 1464.26269544 -1009.55344122 1476.19981474 -1039 1482 C-1040.07894531 1482.22816406 -1041.15789062 1482.45632813 -1042.26953125 1482.69140625 C-1077.31003983 1488.99429018 -1120.42671933 1481.86392245 -1150.6953125 1462.44921875 C-1153.15254535 1460.90407742 -1155.67239682 1459.58362947 -1158.25 1458.25 C-1171.92360684 1450.86199743 -1184.18639291 1440.59152716 -1195.6171875 1430.1640625 C-1197.80159081 1428.18019458 -1200.01630119 1426.24044536 -1202.25 1424.3125 C-1205.6562292 1421.33551107 -1208.91714491 1418.31406922 -1212 1415 C-1212 1414.34 -1212 1413.68 -1212 1413 C-1212.66 1413 -1213.32 1413 -1214 1413 C-1215.3046875 1411.7421875 -1215.3046875 1411.7421875 -1216.875 1409.875 C-1217.49890625 1409.13894531 -1218.1228125 1408.40289063 -1218.765625 1407.64453125 C-1219.50296875 1406.77183594 -1220.2403125 1405.89914062 -1221 1405 C-1221.8889496 1403.98160804 -1222.77968009 1402.96476876 -1223.671875 1401.94921875 C-1282.33897956 1334.88272603 -1319.92591434 1250.25497431 -1354.48779297 1161.87548828 C-1355.88230712 1158.29846814 -1357.28681748 1154.72542045 -1358.69140625 1151.15234375 C-1364.11911672 1137.27593757 -1369.11962356 1123.28256285 -1373.90014648 1109.17085266 C-1375.39269078 1104.76959837 -1376.90594297 1100.37591001 -1378.43031311 1095.98558044 C-1386.34916208 1073.17749177 -1393.77886797 1050.25789525 -1400.8130188 1027.16191101 C-1402.71155148 1020.92956408 -1404.64609612 1014.70939118 -1406.59448242 1008.49243164 C-1414.99748848 981.6429785 -1422.76456001 954.66203614 -1429.84375 927.43505859 C-1431.04091217 922.83525408 -1432.25365404 918.23962605 -1433.46875 913.64453125 C-1435.99190313 904.09968121 -1438.50140604 894.55130834 -1441 885 C-1441.30321167 883.84126373 -1441.30321167 883.84126373 -1441.61254883 882.65911865 C-1446.42997121 864.23697444 -1451.07384505 845.80089791 -1455.26416016 827.22412109 C-1456.02720876 823.88078339 -1456.81304586 820.54352383 -1457.60546875 817.20703125 C-1462.16292497 797.99448425 -1466.33106988 778.70918234 -1470.42642212 759.39364624 C-1471.50058369 754.33185448 -1472.589376 749.27369553 -1473.6953125 744.21875 C-1477.06943846 728.77198408 -1480.07189887 713.27467282 -1482.93455505 697.7270813 C-1483.88308615 692.59136205 -1484.8817757 687.46657273 -1485.89233398 682.34277344 C-1491.25622378 655.04275095 -1495.5208517 627.57197995 -1499.19377136 599.99769592 C-1499.74006279 595.90088381 -1500.3104784 591.80864154 -1500.90625 587.71875 C-1504.90241232 559.85568576 -1505.37881368 531.85166635 -1505.31785583 503.75634766 C-1505.31241533 501.14688981 -1505.31004823 498.53744103 -1505.3079834 495.92797852 C-1505.27625237 470.18763053 -1504.81642557 444.60963022 -1502 419 C-1501.85383171 417.62111199 -1501.70783438 416.24220585 -1501.56201172 414.86328125 C-1497.7912561 379.83322655 -1491.99335751 343.46039759 -1480.66552734 310.01464844 C-1479.90420199 307.71000544 -1479.19463436 305.39238753 -1478.48828125 303.0703125 C-1461.05029119 246.09686151 -1432.03320787 187.45088797 -1388.57421875 145.5703125 C-1386.78687556 143.7874044 -1385.14732352 141.91278625 -1383.5 140 C-1377.81797255 133.43213308 -1371.59525338 127.63574327 -1365 122 C-1364.06414062 121.18660156 -1363.12828125 120.37320313 -1362.1640625 119.53515625 C-1326.98684931 89.14297664 -1285.00181793 64.15423389 -1241 49 C-1240.14567383 48.70029297 -1239.29134766 48.40058594 -1238.41113281 48.09179688 C-1180.38479986 27.80174093 -1120.36141044 19.32214628 -1059.05517197 19.55296707 C-1056.38937029 19.56267528 -1053.72358448 19.56795211 -1051.05776978 19.57272339 C-1022.86749663 19.63904832 -995.00827268 20.60314536 -967 24 C-964.88527774 24.24938838 -962.77053076 24.4985672 -960.65576172 24.74755859 C-907.37402993 31.09506088 -854.6551304 41.43147096 -803 56 C-802.26096436 56.20774048 -801.52192871 56.41548096 -800.76049805 56.6295166 C-763.82206643 67.01905052 -763.82206643 67.01905052 -748.03955078 72.890625 C-743.21268251 74.70256936 -743.21268251 74.70256936 -738.19921875 74.390625 C-737.47347656 73.93171875 -736.74773438 73.4728125 -736 73 C-735.19304688 72.53464844 -734.38609375 72.06929688 -733.5546875 71.58984375 C-732.22824219 70.77193359 -732.22824219 70.77193359 -730.875 69.9375 C-723.26546612 65.43542645 -715.30031778 61.76903103 -707.28076172 58.0625 C-705.26233648 57.12221027 -703.25590931 56.1621236 -701.25390625 55.1875 C-690.09282176 49.81226198 -678.60142354 45.33079842 -667 41 C-666.19481934 40.69594238 -665.38963867 40.39188477 -664.56005859 40.07861328 C-638.95653639 30.54324586 -611.02215606 23.91195535 -584 20 C-582.8749707 19.83306641 -581.74994141 19.66613281 -580.59082031 19.49414062 C-506.63417523 8.70352135 -425.81880955 10.38933941 -352.40014648 25.53637695 C-347.23289681 26.53450605 -342.83123368 26.44774975 -337.9140625 24.6796875 C-313.9833511 16.41023221 -288.77561883 11.92790824 -264 7 C-263.30694763 6.86122437 -262.61389526 6.72244873 -261.89984131 6.57946777 C-240.09421543 2.21848082 -218.07559718 -0.44100717 -196 -3 C-195.22020782 -3.09104004 -194.44041565 -3.18208008 -193.63699341 -3.27587891 C-129.91143024 -10.6848071 -63.4233202 -9.54640067 0 0 Z " fill="#FDFDFD" transform="translate(1505,7)"/>
<path d="M0 0 C1.3045816 0.00215515 2.60916321 0.0043103 3.95327759 0.00653076 C23.89657501 0.0593429 43.47602772 0.57438222 63.25 3.3125 C64.04279358 3.4213855 64.83558716 3.530271 65.65240479 3.64245605 C81.29638809 5.80331608 96.90690229 8.17654181 112.46484375 10.890625 C113.13914429 11.00744629 113.81344482 11.12426758 114.50817871 11.24462891 C129.04001255 13.82120163 143.15818468 18.23957227 157.28417969 22.43652344 C160.05313171 23.25435352 162.8262059 24.05578736 165.6015625 24.8515625 C176.07446386 27.8804652 186.19122254 31.44406744 196.29541016 35.53369141 C198.96843554 36.59876148 201.67294634 37.57376966 204.375 38.5625 C230.42967 48.61355247 256.58305422 61.46840848 280.25 76.3125 C281.18908203 76.89757324 282.12816406 77.48264648 283.09570312 78.08544922 C301.92645581 89.85319017 319.9612939 102.38199243 337.25 116.3125 C338.64412109 117.43205078 338.64412109 117.43205078 340.06640625 118.57421875 C354.14169627 129.98606234 367.98237772 141.80165553 380.6640625 154.76171875 C382.35430308 156.41449094 384.12646093 157.91844478 385.9375 159.4375 C391.27326428 164.04472724 395.89771127 169.32219489 400.625 174.53466797 C402.26645048 176.33049765 403.92628497 178.10722465 405.59375 179.87890625 C411.29974486 185.94490341 416.82509065 192.06261332 422.03125 198.5703125 C423.98505108 200.98504552 425.99209846 203.34153557 428.02661133 205.68823242 C450.11025373 231.26655225 469.3238739 260.11333165 486.25 289.3125 C486.92361572 290.46685547 486.92361572 290.46685547 487.61083984 291.64453125 C493.3592062 301.51092984 498.93836185 311.45360251 504.25 321.5625 C504.91684814 322.82924561 504.91684814 322.82924561 505.59716797 324.12158203 C507.96938832 328.68201023 510.17656182 333.27863591 512.23144531 337.99023438 C513.33189925 340.49922714 514.47066919 342.98829546 515.6171875 345.4765625 C520.4496144 355.98818886 525.13488235 366.49745642 529.25 377.3125 C529.6625 378.38628906 530.075 379.46007812 530.5 380.56640625 C533.25 387.89019097 533.25 387.89019097 533.25 391.3125 C527.60710495 391.5514932 522.2819962 391.21790215 516.703125 390.32421875 C506.85181803 388.90208883 496.99706305 388.96308436 487.0625 389 C486.09700226 389.00115814 485.13150452 389.00231628 484.13674927 389.00350952 C467.99075269 389.04169628 452.24537706 390.00071116 436.25 392.3125 C434.54707532 392.53280401 432.84396049 392.75164508 431.140625 392.96875 C415.79665399 395.03726574 399.36893991 398.13047461 385.4921875 405.1796875 C383.22192693 406.32668326 380.95125744 407.19314893 378.5625 408.0625 C365.89687061 413.08854341 354.67224153 420.63877191 344.25 429.3125 C343.36699219 430.04210937 342.48398438 430.77171875 341.57421875 431.5234375 C320.2426738 449.90240469 304.31186219 478.26384882 300.671875 506.34375 C300.25 509.3125 300.25 509.3125 299.76855469 511.17138672 C297.48012313 520.44095719 297.94669451 529.95648621 298 539.4375 C298.0036557 540.84112289 298.0036557 540.84112289 298.00738525 542.27310181 C298.05157788 556.70941066 298.53316859 570.96596767 300.25 585.3125 C300.33540039 586.07530273 300.42080078 586.83810547 300.50878906 587.62402344 C301.40294942 595.68736313 301.40294942 595.68736313 303.1875 603.58984375 C303.99146003 606.40665959 304.63909323 609.110624 305.1953125 611.9765625 C312.78739521 650.99428739 326.18033624 691.38443527 343.25 727.3125 C344.68740637 730.53229028 346.04300795 733.74848678 347.2578125 737.05859375 C349.48123024 743.07360134 351.91209205 748.82024897 354.83203125 754.53125 C357.91111719 760.62151934 360.93260286 766.7364598 363.90625 772.87890625 C364.30229935 773.69564316 364.69834869 774.51238007 365.10639954 775.35386658 C366.72902986 778.70068101 368.35055758 782.04801811 369.96826172 785.3972168 C374.62570751 795.03489239 379.37120744 804.59311462 384.47998047 814.00048828 C386.35539474 817.50971173 388.1226084 821.05288451 389.875 824.625 C399.12440614 843.32484033 409.26288007 861.6462407 419.78515625 879.66015625 C444.14500607 921.37684229 444.14500607 921.37684229 452.875 943.1875 C455.06905763 948.66897917 457.42077087 953.71604565 460.6171875 958.703125 C462.23868791 961.2944223 463.70572754 963.9470162 465.1628418 966.63330078 C477.57781047 989.37781335 493.4561856 1009.90556423 509.85058594 1029.88842773 C522.25 1045.04085856 522.25 1045.04085856 522.25 1048.3125 C520.331875 1048.68375 520.331875 1048.68375 518.375 1049.0625 C495.24226027 1054.29874806 472.26642562 1069.33384201 459.4375 1089.25 C450.76013632 1103.2067584 445.28688761 1117.03898849 442.62963867 1133.24291992 C442.37810833 1134.61412424 442.0815802 1135.97788307 441.73950195 1137.3293457 C439.50967628 1146.51364802 439.82302625 1155.97991651 439.6875 1165.375 C439.11509505 1199.80375009 439.11509505 1199.80375009 436.875 1212.625 C434.35325967 1228.37128719 432.95088502 1244.25914573 431.37167358 1260.12165833 C430.94146858 1264.43627864 430.50788323 1268.75055764 430.07440186 1273.06484985 C429.75857213 1276.22668271 429.44868385 1279.38905824 429.13916016 1282.55151367 C428.13572629 1292.65815055 426.97433788 1302.7004364 425.40504456 1312.73532104 C423.92370419 1322.24434019 422.74933134 1331.78988833 421.57006836 1341.34033203 C421.18693263 1344.44209325 420.7998195 1347.54333882 420.41210938 1350.64453125 C419.29028182 1359.65306921 418.1948793 1368.66193418 417.21875 1377.6875 C416.34166746 1385.77463227 415.25958078 1393.82637397 414.13400269 1401.88220215 C412.45420955 1413.9269647 410.902802 1425.96097588 409.6875 1438.0625 C408.4913021 1449.86566181 406.73099958 1461.51794769 404.76611328 1473.21484375 C402.33721159 1487.79284977 400.2051668 1502.39770194 398.375 1517.0625 C396.65722486 1530.80557484 394.56290086 1544.47329075 392.35595703 1558.14550781 C392.2328566 1558.90838104 392.10975616 1559.67125427 391.98292542 1560.45724487 C391.74130856 1561.95384 391.49924139 1563.45036251 391.25669861 1564.94680786 C390.50484673 1569.61791411 389.82244435 1574.29363309 389.17578125 1578.98046875 C388.52490703 1583.60267193 387.74439692 1588.04883031 386.5625 1592.5625 C386.39806396 1593.19397949 386.23362793 1593.82545898 386.06420898 1594.47607422 C385.68658452 1595.91766864 385.30492055 1597.35820899 384.91992188 1598.79785156 C384.13757236 1601.73451337 383.37422678 1604.6759211 382.609375 1607.6171875 C378.01096236 1625.16669727 372.71778791 1641.24873517 364.25 1657.3125 C363.72148438 1658.32570313 363.19296875 1659.33890625 362.6484375 1660.3828125 C357.12136295 1670.75716099 350.87900826 1680.36023013 343.25 1689.3125 C342.04923828 1690.73369141 342.04923828 1690.73369141 340.82421875 1692.18359375 C328.94576899 1705.71622763 314.7895656 1715.39372893 299.25 1724.3125 C298.33275146 1724.84447998 298.33275146 1724.84447998 297.39697266 1725.38720703 C289.61057899 1729.87349513 281.67421068 1733.22757778 273.25 1736.3125 C271.58097333 1736.99425068 269.91413215 1737.68138757 268.25 1738.375 C256.81761264 1742.94771152 244.76913229 1745.83311342 232.875 1748.9375 C230.60896066 1749.5312517 228.34313097 1750.12579118 226.07748413 1750.72103882 C224.68307802 1751.08715132 223.28842255 1751.45231606 221.89346313 1751.8163147 C218.74685065 1752.6402939 215.61350287 1753.49474561 212.48632812 1754.39013672 C193.21405804 1759.88279185 173.14642152 1760.49489283 153.25 1760.5625 C152.45631012 1760.56776703 151.66262024 1760.57303406 150.84487915 1760.57846069 C115.39434015 1760.76035701 83.96066873 1748.91306963 58.19140625 1724.3203125 C53.47660521 1719.63195541 49.48483738 1714.38567859 45.54394531 1709.04492188 C44.35101113 1707.44774057 43.11103042 1705.88598728 41.8671875 1704.328125 C32.49927588 1692.14674817 26.0996836 1678.00226334 19.25 1664.3125 C18.83403564 1663.49740967 18.41807129 1662.68231934 17.98950195 1661.8425293 C16.15858102 1658.24799759 14.52571714 1654.68109809 13.1875 1650.875 C12.8575 1649.94171875 12.5275 1649.0084375 12.1875 1648.046875 C11.11926869 1644.93120035 10.0699621 1641.81039494 9.05859375 1638.67578125 C8.36935014 1636.6613253 7.57218606 1634.68433075 6.75390625 1632.71875 C4.88373798 1627.74987359 4.33079523 1622.75225315 3.75 1617.5 C3.02271953 1611.21934956 2.21017142 1604.9726556 1.17614746 1598.73526001 C-0.64091824 1587.73105956 -1.79456817 1576.73378291 -2.75 1565.625 C-2.91957968 1563.70107467 -3.0893426 1561.77716548 -3.25927734 1559.85327148 C-4.93812474 1540.6866789 -6.45740121 1521.50904301 -7.75 1502.3125 C-7.8228421 1501.23902313 -7.8228421 1501.23902313 -7.89715576 1500.14385986 C-12.05462472 1438.39548735 -12.05639885 1376.49151059 -11.95059592 1314.6369673 C-11.93715075 1306.38310325 -11.9349002 1298.12926561 -11.9355461 1289.87539208 C-11.93622731 1279.7947867 -11.92928078 1269.71419661 -11.9200995 1259.63359594 C-11.91800339 1256.8045594 -11.9172634 1253.97552543 -11.91686058 1251.14648819 C-11.91165173 1232.10446167 -11.79759559 1213.10177148 -10.97924805 1194.07455444 C-10.63940497 1186.11729362 -10.56387947 1178.1604821 -10.56469727 1170.19677734 C-10.56244435 1167.75211723 -10.54392845 1165.30786655 -10.52539062 1162.86328125 C-10.41009665 1131.12171917 -22.97115761 1101.41161277 -45.125 1078.5625 C-57.1986975 1066.92298803 -71.87833642 1058.69109704 -87.75 1053.3125 C-88.81863281 1052.94125 -89.88726563 1052.57 -90.98828125 1052.1875 C-104.43705107 1048.02719312 -117.9073805 1048.60644569 -131.75 1050.3125 C-131.31346378 1041.17642061 -128.23872143 1032.85122206 -125.375 1024.25 C-124.87423667 1022.7209529 -124.37423091 1021.19165749 -123.875 1019.66210938 C-120.83425275 1010.39205612 -117.57636064 1001.28332071 -113.875 992.25 C-111.77423587 987.07748091 -109.89609541 981.87684437 -108.1875 976.5625 C-106.43739122 971.18357141 -104.40646543 966.12535768 -101.984375 961.01953125 C-100.68795731 958.17643803 -99.58686678 955.30432931 -98.5 952.375 C-95.94993232 945.60189031 -92.98354246 939.04073302 -89.95996094 932.46704102 C-88.22488528 928.6769333 -86.55724985 924.90275176 -85.12109375 920.98828125 C-84.04104963 918.09277835 -82.90476464 915.51509055 -81.4375 912.8125 C-78.83924919 907.7568674 -76.8791867 902.54547787 -74.98120117 897.19726562 C-73.76921332 893.83077282 -72.45161588 890.65122705 -70.7890625 887.48046875 C-68.36051659 882.75134682 -66.79348142 877.80613475 -65.1875 872.75 C-62.10723416 863.14039018 -62.10723416 863.14039018 -60.1875 858.69140625 C-58.52948337 854.79416607 -57.40158367 850.89756109 -56.3125 846.8125 C-56.097146 846.0184375 -55.88179199 845.224375 -55.65991211 844.40625 C-55.22294799 842.79224712 -54.78810326 841.17766882 -54.35546875 839.5625 C-53.83054133 837.61180198 -53.29153799 835.66490214 -52.75 833.71875 C-51.70647264 829.92726727 -50.71843356 826.12364841 -49.75 822.3125 C-49.52699219 821.44818359 -49.30398438 820.58386719 -49.07421875 819.69335938 C-45.61582964 806.1279668 -42.98773313 792.5351264 -41 778.6875 C-40.8992215 777.99756958 -40.79844299 777.30763916 -40.6946106 776.59680176 C-37.53663301 754.73162542 -36.4381408 733.00738442 -36.54418945 710.9230957 C-36.5624327 707.01441854 -36.56469808 703.10598103 -36.56445312 699.19726562 C-36.59618388 674.50801913 -37.33179258 650.09458439 -40.1875 625.5625 C-40.40777682 623.59645209 -40.62717741 621.63030581 -40.84570312 619.6640625 C-42.92735866 600.11746874 -42.92735866 600.11746874 -46.26318359 580.76269531 C-47.22202871 575.93673265 -47.85423668 571.05528784 -48.5625 566.1875 C-50.33839267 554.30425078 -52.65913198 542.59563645 -55.21240234 530.85839844 C-55.67391798 528.67280124 -56.09763996 526.4881864 -56.48828125 524.2890625 C-63.62839192 484.60231239 -82.36721211 447.29623274 -115.953125 423.8515625 C-125.65316202 417.27753333 -135.61954189 412.08228776 -146.75 408.3125 C-147.67401611 407.99369873 -147.67401611 407.99369873 -148.61669922 407.66845703 C-158.53516585 404.27418168 -168.39576639 401.9656031 -178.75 400.3125 C-180.29953369 400.05339844 -180.29953369 400.05339844 -181.88037109 399.7890625 C-186.37282128 399.23579671 -190.76380005 399.13255313 -195.28515625 399.109375 C-196.19272171 399.10240601 -197.10028717 399.09543701 -198.03535461 399.08825684 C-200.96111702 399.07089094 -203.88668814 399.0645331 -206.8125 399.0625 C-207.80864319 399.06149292 -208.80478638 399.06048584 -209.83111572 399.05944824 C-223.1710305 399.0686001 -236.21359301 399.30364173 -249.35009766 401.85498047 C-251.9596665 402.35247101 -254.57549832 402.77524262 -257.19921875 403.19140625 C-270.02330849 405.28447452 -282.34068111 408.49463599 -294.75 412.3125 C-296.20953572 412.75293468 -297.66916623 413.19305539 -299.12890625 413.6328125 C-310.10402208 416.97120139 -321.05050676 420.4877798 -331.47265625 425.3125 C-334.02853994 426.43480913 -336.62453692 427.36412555 -339.25 428.3125 C-354.55076827 434.11125634 -369.14543196 441.97354565 -383.75 449.3125 C-383.91499782 442.13515604 -383.43861367 435.18894678 -382.578125 428.06640625 C-382.45443542 427.01581528 -382.33074585 425.9652243 -382.20330811 424.88279724 C-381.94061256 422.66800873 -381.67487734 420.45357884 -381.40625 418.23950195 C-381.0050333 414.91668505 -380.61911099 411.59233831 -380.234375 408.26757812 C-378.8950884 396.95808203 -377.20147907 385.88086511 -374.71044922 374.76904297 C-373.71578576 370.28858246 -372.96019882 365.78577466 -372.2421875 361.25390625 C-370.90900931 352.93681466 -369.22472523 344.72534879 -367.38037109 336.50756836 C-366.87460765 334.24824732 -366.38027593 331.98662442 -365.88671875 329.72460938 C-363.90053408 320.73834669 -361.56270152 311.91816308 -358.89697266 303.11010742 C-357.95833876 300.00230616 -357.05755215 296.89127432 -356.1953125 293.76171875 C-352.87344088 281.75102689 -349.01254539 270.02004463 -344.75 258.3125 C-344.44916504 257.47879883 -344.14833008 256.64509766 -343.83837891 255.78613281 C-335.28794741 232.09745744 -335.28794741 232.09745744 -329.69921875 221.2734375 C-328.67410008 219.15570264 -327.83646483 217.01141629 -327 214.8125 C-324.39353163 208.17509798 -321.14198383 201.86522443 -317.88720703 195.52929688 C-317.12616442 194.04577027 -316.3693545 192.56006503 -315.61669922 191.07226562 C-293.3089884 147.00531674 -261.37353507 102.47369834 -221.75 72.3125 C-220.46648619 71.30200162 -219.18401794 70.29017441 -217.90234375 69.27734375 C-198.60172383 54.13657193 -177.81272849 41.95588771 -155.75 31.3125 C-154.79738281 30.85101563 -153.84476563 30.38953125 -152.86328125 29.9140625 C-120.68449366 14.81071526 -84.88415718 6.55503525 -49.75 2.3125 C-48.98588806 2.21924438 -48.22177612 2.12598877 -47.43450928 2.02990723 C-31.62872211 0.16152573 -15.90183168 -0.04728586 0 0 Z " fill="#336791" transform="translate(1004.75,130.6875)"/>
<path d="M0 0 C3.21717202 0.01333652 6.434203 0.00817471 9.65139008 0.00313091 C26.1979346 -0.01635825 42.69091475 0.27955404 59.21063232 1.2600708 C60.27361038 1.32254533 60.27361038 1.32254533 61.35806274 1.38628197 C70.4166059 1.93174915 79.3081816 2.77803345 88.23406982 4.4085083 C94.7315354 5.59059341 101.27206582 6.49207295 107.80752563 7.43463135 C112.2766191 8.08194425 116.743276 8.74585375 121.21034241 9.40698242 C125.45486868 10.03423605 129.70122832 10.64668744 133.94891357 11.2522583 C150.46791362 13.67490117 166.6330285 17.39881986 182.86590576 21.24493408 C187.43803683 22.32739463 192.01536538 23.38669642 196.59344482 24.44366455 C216.69094404 29.09367151 236.44109133 34.31573765 256.13641357 40.46905518 C262.86494785 42.56653037 269.61603204 44.51911161 276.42938232 46.3225708 C276.42938232 49.3225708 276.42938232 49.3225708 275.01165771 51.0491333 C274.3567334 51.67561768 273.70180908 52.30210205 273.02703857 52.9475708 C272.30613037 53.64825684 271.58522217 54.34894287 270.84246826 55.07086182 C270.0667749 55.81392578 269.29108154 56.55698975 268.49188232 57.3225708 C261.96446973 63.71259945 256.05201726 70.12321813 250.42938232 77.3225708 C249.45515021 78.50006485 248.47699314 79.67431805 247.49578857 80.8460083 C218.86505725 115.16620782 192.00690502 157.53981463 177.32000732 199.92022705 C176.50539746 202.11752998 175.57802849 204.12441087 174.49188232 206.1975708 C169.81545444 215.22289466 166.7699733 225.05168686 163.66033936 234.70294189 C162.40529252 238.56040369 161.04389823 242.3308524 159.50360107 246.08428955 C152.30869938 263.84260736 147.67145799 282.70010655 143.05438232 301.2600708 C142.73820953 302.52974701 142.73820953 302.52974701 142.41564941 303.82507324 C139.18509696 316.84943365 136.08114989 329.8932 133.86688232 343.1350708 C133.13607281 347.41185377 132.39694862 351.66823692 131.36688232 355.8850708 C130.24903327 360.6428581 129.75123697 365.48172765 129.17694092 370.32769775 C128.72410893 374.10290965 128.20466436 377.83782859 127.49188232 381.5725708 C122.85589252 406.23748533 120.41242362 431.36378318 119.71990967 456.44439697 C119.69364502 457.3851709 119.66738037 458.32594482 119.64031982 459.29522705 C119.62275635 460.10226074 119.60519287 460.90929443 119.58709717 461.74078369 C119.42938232 464.3225708 119.42938232 464.3225708 118.92669678 467.7131958 C118.07817928 473.87150832 118.23392209 480.05365626 118.24188232 486.2600708 C118.24179169 487.3504213 118.24179169 487.3504213 118.24169922 488.46279907 C118.2538783 498.88200535 118.5985339 509.2366371 119.30438232 519.6350708 C119.39386314 520.96783152 119.48329913 522.30059525 119.57269287 523.63336182 C119.71275006 525.70893475 119.85317906 527.78448165 119.99403381 529.86000061 C120.13999859 532.01413458 120.2849964 534.16833044 120.42938232 536.3225708 C120.47748047 537.03890686 120.52557861 537.75524292 120.57513428 538.49328613 C122.36313162 565.53486775 122.61794027 592.55707773 122.61696625 619.64731598 C122.61691071 621.4589768 122.61733571 623.2706377 122.61826324 625.08229828 C122.64695677 681.16339449 122.64695677 681.16339449 119.92889404 703.01397705 C119.35390262 707.73138128 119.00783028 712.45721526 118.68328857 717.1975708 C118.62539154 718.02941895 118.56749451 718.86126709 118.50784302 719.71832275 C118.27471527 723.09967591 118.04628246 726.48126825 117.82757568 729.86358643 C117.24856885 738.72520496 116.52792794 747.4511833 114.95672607 756.1975708 C111.84926918 773.58593968 110.95221357 791.18175984 110.92938232 808.8225708 C110.92803284 809.78346619 110.92668335 810.74436157 110.92529297 811.734375 C111.01158425 851.00981096 118.99098703 893.92523478 137.17938232 929.1350708 C137.67897461 930.10343872 137.67897461 930.10343872 138.18865967 931.09136963 C138.8983857 932.46362638 139.61179395 933.83398471 140.32879639 935.20245361 C141.46706151 937.39515421 142.57089287 939.60297592 143.67156982 941.8147583 C152.6253484 959.59182107 163.72189867 976.01760222 176.42938232 991.3225708 C176.88458252 991.87928467 177.33978271 992.43599854 177.80877686 993.00958252 C187.25767489 1004.53927297 197.52127141 1016.28250201 209.42938232 1025.3225708 C207.80636239 1029.27632286 205.07682486 1032.08108531 202.17938232 1035.1350708 C201.39398071 1035.97461304 201.39398071 1035.97461304 200.5927124 1036.83111572 C198.87562622 1038.6654195 197.15249208 1040.49392589 195.42938232 1042.3225708 C192.98927622 1044.92430367 190.55258473 1047.52921541 188.11688232 1050.1350708 C187.51601807 1050.77726562 186.91515381 1051.41946045 186.29608154 1052.08111572 C182.87725534 1055.74319174 179.52630511 1059.44735746 176.25750732 1063.2444458 C173.73869273 1066.10771367 171.14619829 1068.90043072 168.55438232 1071.6975708 C163.46161055 1077.19429286 158.42968503 1082.74147068 153.42938232 1088.3225708 C151.88785591 1090.0310307 150.34618879 1091.73936364 148.80438232 1093.4475708 C144.0511878 1098.73253408 139.35026727 1104.05635584 134.74969482 1109.47491455 C129.68842459 1115.42772511 124.57936072 1121.30245657 119.24188232 1127.0100708 C114.90262245 1131.65580307 110.81309024 1136.43256673 106.82781982 1141.38897705 C103.988265 1144.86211333 101.06217247 1148.25157053 98.11688232 1151.6350708 C97.56339111 1152.27098145 97.0098999 1152.90689209 96.43963623 1153.56207275 C95.31840803 1154.85010196 94.19715153 1156.13810652 93.0758667 1157.42608643 C89.49890181 1161.54617292 85.95636438 1165.69581506 82.40985107 1169.84210205 C80.3763465 1172.21933536 78.33671877 1174.59112278 76.29266357 1176.95928955 C71.85918012 1182.10171537 67.44865646 1187.24121348 63.24188232 1192.5725708 C59.17958941 1197.6920588 54.89964211 1202.5556734 50.42938232 1207.3225708 C49.71588623 1208.08706543 49.71588623 1208.08706543 48.98797607 1208.86700439 C35.81751718 1222.86693272 21.96589977 1232.60714459 3.42938232 1238.3225708 C2.43938232 1238.6525708 1.44938232 1238.9825708 0.42938232 1239.3225708 C-20.64794707 1241.40265702 -38.18623028 1234.43771585 -54.43780518 1221.15460205 C-66.14629239 1211.09731175 -77.1316681 1200.56760353 -86.57061768 1188.3225708 C-87.12265869 1187.60923584 -87.67469971 1186.89590088 -88.24346924 1186.16094971 C-96.92724755 1174.89144816 -105.10751595 1163.43530337 -112.57061768 1151.3225708 C-113.04563721 1150.55509521 -113.52065674 1149.78761963 -114.0100708 1148.99688721 C-122.0056135 1136.02651573 -129.41155167 1122.76985626 -136.57061768 1109.3225708 C-137.11444092 1108.30872314 -137.65826416 1107.29487549 -138.21856689 1106.25030518 C-150.94621961 1082.46263447 -161.88270214 1057.92586385 -172.63311768 1033.1975708 C-173.40087524 1031.43159546 -173.40087524 1031.43159546 -174.18414307 1029.62994385 C-177.79838541 1021.25220263 -181.22126545 1012.8086495 -184.57061768 1004.3225708 C-184.91101074 1003.46018799 -185.25140381 1002.59780518 -185.60211182 1001.70928955 C-186.42961755 999.6029953 -187.25192619 997.49480504 -188.07061768 995.3850708 C-188.35977051 994.64055664 -188.64892334 993.89604248 -188.94683838 993.12896729 C-192.96655696 982.75064494 -196.87024875 972.32884684 -200.65264893 961.8616333 C-201.25010308 960.20910053 -201.85146488 958.55797358 -202.45733643 956.9085083 C-207.6185237 942.84046197 -212.50639262 928.67384206 -217.19000244 914.44024658 C-219.75734787 906.68455901 -222.46431205 898.97749342 -225.1663208 891.2678833 C-227.81158204 883.66893251 -230.25614892 876.02837023 -232.57061768 868.3225708 C-232.90956055 867.19576904 -233.24850342 866.06896729 -233.59771729 864.90802002 C-234.87041896 860.66568109 -236.1378109 856.42176577 -237.40505981 852.17779541 C-239.45326939 845.32313607 -241.51209949 838.47332336 -243.65264893 831.64678955 C-247.5424017 819.24093668 -251.12430951 806.79589222 -254.42364502 794.21954346 C-256.895268 784.80377953 -259.47438549 775.42203773 -262.09988403 766.04806519 C-265.39074111 754.29670429 -268.61397023 742.54542904 -271.49639893 730.68585205 C-272.42183493 726.88260858 -273.41897183 723.10164132 -274.43365479 719.3213501 C-276.62256509 711.16390474 -278.59103814 702.98067872 -280.42315674 694.73614502 C-281.73853565 688.86455546 -283.12450666 683.01460315 -284.57061768 677.1741333 C-289.27553919 658.1502285 -293.65176181 639.09147287 -297.65167236 619.90557861 C-297.83268997 619.04264694 -298.01370758 618.17971527 -298.20021057 617.29063416 C-298.53730752 615.68146581 -298.87135056 614.07165322 -299.2016449 612.46107483 C-300.07380448 608.29773388 -301.18637676 604.35233074 -302.57061768 600.3225708 C-303.06940847 597.69706763 -303.52725567 595.08522913 -303.94561768 592.4475708 C-304.91847763 586.5932092 -306.11749712 580.87237586 -307.63311768 575.1350708 C-309.20810296 569.13217277 -310.22395441 563.18992858 -311.01983643 557.03741455 C-311.64248285 552.83786315 -312.48540303 548.72031676 -313.38311768 544.5725708 C-318.00757905 523.02009524 -321.68741312 501.46381081 -324.6882019 479.63447571 C-325.44155303 474.17920477 -326.26226624 468.73626828 -327.10929871 463.29470825 C-331.69702001 433.43235641 -334.28171657 404.12669692 -334.08550644 373.91329193 C-334.07034178 371.3382212 -334.06272357 368.763218 -334.05685425 366.18811035 C-333.9842443 339.43045281 -333.12015856 312.87604422 -329.57061768 286.3225708 C-329.45418915 285.44778076 -329.33776062 284.57299072 -329.21780396 283.67169189 C-327.85893032 273.57917654 -326.43133778 263.5272616 -324.25811768 253.5725708 C-324.04646973 252.58708252 -323.83482178 251.60159424 -323.61676025 250.58624268 C-322.94590438 247.49576657 -322.2599469 244.40897424 -321.57061768 241.3225708 C-321.34503174 240.29583252 -321.1194458 239.26909424 -320.88702393 238.21124268 C-317.41919834 222.54725085 -312.94736962 207.43431056 -307.57061768 192.3225708 C-307.30781006 191.57185303 -307.04500244 190.82113525 -306.77423096 190.04766846 C-294.02907523 153.77037484 -274.23525916 117.10886561 -246.40264893 90.15460205 C-244.67560712 88.42756024 -243.12127063 86.64509636 -241.57061768 84.7600708 C-238.26127304 80.83298183 -234.48895782 77.6266497 -230.57061768 74.3225708 C-229.6450708 73.50917236 -228.71952393 72.69577393 -227.76593018 71.85772705 C-204.56138388 51.58151453 -177.98086836 36.15937106 -149.19561768 25.3225708 C-147.89237549 24.8275708 -147.89237549 24.8275708 -146.56280518 24.3225708 C-143.90160482 23.31477895 -141.23639592 22.31818207 -138.57061768 21.3225708 C-137.67197998 20.98096924 -136.77334229 20.63936768 -135.84747314 20.28741455 C-129.46235833 17.89824835 -123.05366189 15.9898835 -116.44561768 14.3225708 C-114.93596436 13.93802734 -114.93596436 13.93802734 -113.39581299 13.54571533 C-111.37703347 13.03378987 -109.35751739 12.52475888 -107.33721924 12.01885986 C-104.97085789 11.42330192 -102.61016031 10.8104171 -100.25030518 10.1897583 C-87.9520633 7.0336797 -75.39308754 5.23676547 -62.81115723 3.62020874 C-61.2079923 3.40724097 -59.60635144 3.18267291 -58.00585938 2.95046997 C-38.62984742 0.15131944 -19.52584798 -0.10921428 0 0 Z " fill="#336791" transform="translate(444.57061767578125,135.67742919921875)"/>
<path d="M0 0 C1.53599854 0.22574707 1.53599854 0.22574707 3.10302734 0.45605469 C66.58239562 9.90754321 130.89372467 28.44140631 187.46484375 59.109375 C190.52207627 60.75980479 193.62245484 62.29875075 196.75 63.8125 C225.54404911 78.09341952 252.40387442 96.77314321 277.62109375 116.578125 C280.40506252 118.76321321 283.20549762 120.92129665 286.03515625 123.046875 C286.64544678 123.50707031 287.2557373 123.96726563 287.88452148 124.44140625 C289.51624322 125.66823028 291.15249581 126.88902157 292.7890625 128.109375 C293.51867188 128.73328125 294.24828125 129.3571875 295 130 C295 130.66 295 131.32 295 132 C295.53109375 132.21269531 296.0621875 132.42539063 296.609375 132.64453125 C299.92111462 134.52226597 302.51046127 137.07948479 305.25 139.6875 C306.33746322 140.71338397 307.42601934 141.73811058 308.515625 142.76171875 C309.3674939 143.56283081 309.3674939 143.56283081 310.23657227 144.38012695 C311.99221796 145.99285147 313.79133602 147.53950665 315.60546875 149.0859375 C321.09651122 153.86307853 326.19297866 159.04370164 331.32739258 164.19702148 C333.058947 165.933936 334.79578359 167.66543889 336.53320312 169.39648438 C342.2361413 175.09559158 347.79478349 180.83652929 353 187 C354.06847449 188.22686357 355.1387937 189.45212296 356.2109375 190.67578125 C370.81892366 207.44336698 384.77370039 224.15368441 395 244 C395.34659668 244.67256836 395.69319336 245.34513672 396.05029297 246.03808594 C405.25212851 264.16514007 410.98500544 283.36097367 416 303 C416.46212891 304.78664063 416.46212891 304.78664063 416.93359375 306.609375 C420.46889969 321.04368113 422.17826085 335.73578375 423.625 350.5 C423.74810547 351.74442871 423.87121094 352.98885742 423.99804688 354.27099609 C425.54895781 370.767633 426.20810966 387.24629044 426.1875 403.8125 C426.18722809 404.65072296 426.18695618 405.48894592 426.18667603 406.35256958 C426.16315506 422.30449111 425.37838316 438.10348673 424 454 C423.89284668 455.28922363 423.78569336 456.57844727 423.67529297 457.90673828 C420.08469315 500.98800129 413.31730053 543.65078982 404.43170166 585.94177246 C404.01338132 587.93620176 403.59874419 589.93136266 403.18505859 591.92675781 C396.37273133 624.61759553 388.31354064 657.08716316 378.84814453 689.11132812 C377.8136083 692.63482632 376.81795007 696.16847762 375.82495117 699.70385742 C368.45905152 725.84034057 360.27141183 751.64365485 351.30419922 777.27246094 C350.20947972 780.40128483 349.12033887 783.53192301 348.03515625 786.6640625 C346.67680695 790.57680905 345.30480871 794.48451927 343.92333984 798.38916016 C343.24764792 800.29974964 342.57374536 802.21097221 341.90087891 804.12255859 C333.81665957 827.0724835 325.19994588 849.79460532 316.0703125 872.34863281 C314.92518115 875.18534049 313.79079159 878.02622905 312.65625 880.8671875 C304.80705895 900.42444044 296.37938764 919.72298204 287.87957764 939.0045166 C287.12468776 940.71712293 286.37105708 942.43028419 285.61767578 944.14355469 C278.96022163 959.25271077 271.85215778 974.15765296 264.79418945 989.08258057 C262.94790719 992.98797467 261.1103629 996.89719447 259.28515625 1000.8125 C255.49263666 1008.93095012 251.53329035 1016.91783169 247.29638672 1024.81420898 C244.8464419 1029.3805955 242.48434741 1033.97986998 240.1875 1038.625 C231.2437864 1056.65482143 221.71542494 1074.37667104 212 1092 C211.4131543 1093.06798828 210.82630859 1094.13597656 210.22167969 1095.23632812 C201.74568317 1110.65291157 193.05649614 1125.91664059 184 1141 C217.69685768 1137.91682179 250.71200174 1133.63598126 283.92236328 1127.08520508 C284.91578232 1126.89023438 285.90920135 1126.69526367 286.932724 1126.49438477 C288.79892111 1126.12740287 290.66450273 1125.75727038 292.52931213 1125.38330078 C314.65485551 1121.03273508 341.33678859 1119.9911592 363 1127 C363.70592285 1127.22494141 364.4118457 1127.44988281 365.13916016 1127.68164062 C393.01484516 1136.82451269 412.75909305 1154.43914357 426.3125 1180.0625 C429.2493011 1186.18829287 431.31976252 1192.42445525 433 1199 C433.226875 1199.88429688 433.45375 1200.76859375 433.6875 1201.6796875 C439.71617597 1230.56709321 431.41570835 1259.47952585 415.81103516 1283.85742188 C410.50120125 1291.83166588 404.53753927 1298.99636975 398 1306 C396.82820173 1307.3497286 395.66125916 1308.7036933 394.5 1310.0625 C388.20677716 1317.27136496 381.32800025 1323.85620459 374 1330 C373.48679199 1330.43763672 372.97358398 1330.87527344 372.44482422 1331.32617188 C356.15592712 1345.17380327 338.3117659 1357.00278137 320 1368 C318.96230469 1368.62519531 317.92460938 1369.25039062 316.85546875 1369.89453125 C304.52653306 1377.11554784 291.75658896 1383.5742148 279 1390 C277.71295166 1390.65234619 277.71295166 1390.65234619 276.39990234 1391.31787109 C205.67958942 1426.67060363 109.87269053 1438.81874756 32 1430 C29.95435811 1444.1413869 29.34547551 1458.31509172 28.73876953 1472.57928467 C28.43945958 1479.60186942 28.11231051 1486.62319769 27.78515625 1493.64453125 C27.73630468 1494.69687454 27.73630468 1494.69687454 27.68646622 1495.77047729 C25.31273287 1546.73430155 21.38178822 1597.63889463 13 1648 C12.78617676 1649.29486328 12.57235352 1650.58972656 12.35205078 1651.92382812 C-2.83451577 1743.40581466 -32.24043224 1836.11980736 -126.19677734 1923.58300781 C-161.10592441 1948.36769227 -199.74778916 1964.95379188 -241 1976 C-242.48209961 1976.4017041 -242.48209961 1976.4017041 -243.99414062 1976.81152344 C-259.19282265 1980.89468033 -274.50792897 1984.24233386 -289.9375 1987.3125 C-291.20237244 1987.56891266 -291.20237244 1987.56891266 -292.49279785 1987.83050537 C-312.72939966 1991.91087112 -332.68603231 1993.39459146 -353.3125 1993.3125 C-354.29512817 1993.31034485 -355.27775635 1993.3081897 -356.29016113 1993.30596924 C-371.02874538 1993.25422657 -385.50142657 1992.8945134 -400 1990 C-401.00788574 1989.80132324 -402.01577148 1989.60264648 -403.05419922 1989.39794922 C-423.89671379 1985.1414467 -443.30101145 1978.10890726 -462 1968 C-462.5986084 1967.68063477 -463.1972168 1967.36126953 -463.81396484 1967.03222656 C-476.53274754 1960.20311729 -488.03938075 1952.18049132 -498.55859375 1942.2890625 C-500.63446312 1940.34272738 -502.75310651 1938.50857547 -504.9375 1936.6875 C-527.5426514 1916.94844141 -542.78197751 1890.17483558 -555.6875 1863.5 C-556.11466309 1862.6241626 -556.54182617 1861.7483252 -556.98193359 1860.84594727 C-563.95676889 1846.18708415 -569.17454764 1830.89146001 -574.0625 1815.4375 C-575.04996465 1812.33093167 -576.04125246 1809.22560767 -577.03515625 1806.12109375 C-577.27775177 1805.36103027 -577.52034729 1804.6009668 -577.77029419 1803.81787109 C-579.45932894 1798.56623985 -581.27977386 1793.37218122 -583.15234375 1788.18359375 C-585.69540449 1781.0881798 -587.77239089 1773.96720496 -589.5 1766.625 C-589.78915283 1765.40659424 -590.07830566 1764.18818848 -590.3762207 1762.93286133 C-608.25145614 1685.40837071 -609.52516065 1604.42353501 -611.90693188 1525.26194477 C-612.02527219 1521.33644532 -612.14611016 1517.41102413 -612.26696587 1513.48560143 C-612.34969033 1510.75324344 -612.42790268 1508.0207814 -612.50587463 1505.2882843 C-612.55661093 1503.62260327 -612.60753897 1501.95692807 -612.65869141 1500.29125977 C-612.68831892 1499.17970583 -612.68831892 1499.17970583 -612.71854496 1498.04569626 C-612.86002079 1493.61762569 -613.29921607 1489.36543485 -614 1485 C-614.65669678 1485.26627197 -615.31339355 1485.53254395 -615.98999023 1485.80688477 C-638.47733746 1494.85830985 -661.09001328 1501.90114513 -685 1506 C-686.17151611 1506.20834473 -686.17151611 1506.20834473 -687.36669922 1506.42089844 C-699.14164951 1508.47480932 -710.95601428 1509.45825497 -722.875 1510.1875 C-723.90975967 1510.2518222 -723.90975967 1510.2518222 -724.96542358 1510.31744385 C-740.08994573 1511.23607481 -755.12791243 1511.1368879 -770.25 1510.25 C-770.98400024 1510.20709839 -771.71800049 1510.16419678 -772.47424316 1510.11999512 C-786.79964606 1509.25607025 -800.86703249 1507.52656402 -815 1505 C-816.2060791 1504.78859375 -817.4121582 1504.5771875 -818.65478516 1504.359375 C-865.27616578 1496.05288533 -919.33773248 1478.91320497 -950 1440 C-953.3218659 1442.1799745 -956.59164762 1444.40748666 -959.8125 1446.734375 C-984.09317789 1464.26269544 -1009.55344122 1476.19981474 -1039 1482 C-1040.07894531 1482.22816406 -1041.15789062 1482.45632813 -1042.26953125 1482.69140625 C-1077.31003983 1488.99429018 -1120.42671933 1481.86392245 -1150.6953125 1462.44921875 C-1153.15254535 1460.90407742 -1155.67239682 1459.58362947 -1158.25 1458.25 C-1171.92360684 1450.86199743 -1184.18639291 1440.59152716 -1195.6171875 1430.1640625 C-1197.80159081 1428.18019458 -1200.01630119 1426.24044536 -1202.25 1424.3125 C-1205.6562292 1421.33551107 -1208.91714491 1418.31406922 -1212 1415 C-1212 1414.34 -1212 1413.68 -1212 1413 C-1212.66 1413 -1213.32 1413 -1214 1413 C-1215.3046875 1411.7421875 -1215.3046875 1411.7421875 -1216.875 1409.875 C-1217.49890625 1409.13894531 -1218.1228125 1408.40289063 -1218.765625 1407.64453125 C-1219.50296875 1406.77183594 -1220.2403125 1405.89914062 -1221 1405 C-1221.8889496 1403.98160804 -1222.77968009 1402.96476876 -1223.671875 1401.94921875 C-1282.33897956 1334.88272603 -1319.92591434 1250.25497431 -1354.48779297 1161.87548828 C-1355.88230712 1158.29846814 -1357.28681748 1154.72542045 -1358.69140625 1151.15234375 C-1364.11911672 1137.27593757 -1369.11962356 1123.28256285 -1373.90014648 1109.17085266 C-1375.39269078 1104.76959837 -1376.90594297 1100.37591001 -1378.43031311 1095.98558044 C-1386.34916208 1073.17749177 -1393.77886797 1050.25789525 -1400.8130188 1027.16191101 C-1402.71155148 1020.92956408 -1404.64609612 1014.70939118 -1406.59448242 1008.49243164 C-1414.99748848 981.6429785 -1422.76456001 954.66203614 -1429.84375 927.43505859 C-1431.04091217 922.83525408 -1432.25365404 918.23962605 -1433.46875 913.64453125 C-1435.99190313 904.09968121 -1438.50140604 894.55130834 -1441 885 C-1441.30321167 883.84126373 -1441.30321167 883.84126373 -1441.61254883 882.65911865 C-1446.42997121 864.23697444 -1451.07384505 845.80089791 -1455.26416016 827.22412109 C-1456.02720876 823.88078339 -1456.81304586 820.54352383 -1457.60546875 817.20703125 C-1462.16292497 797.99448425 -1466.33106988 778.70918234 -1470.42642212 759.39364624 C-1471.50058369 754.33185448 -1472.589376 749.27369553 -1473.6953125 744.21875 C-1477.06943846 728.77198408 -1480.07189887 713.27467282 -1482.93455505 697.7270813 C-1483.88308615 692.59136205 -1484.8817757 687.46657273 -1485.89233398 682.34277344 C-1491.25622378 655.04275095 -1495.5208517 627.57197995 -1499.19377136 599.99769592 C-1499.74006279 595.90088381 -1500.3104784 591.80864154 -1500.90625 587.71875 C-1504.90241232 559.85568576 -1505.37881368 531.85166635 -1505.31785583 503.75634766 C-1505.31241533 501.14688981 -1505.31004823 498.53744103 -1505.3079834 495.92797852 C-1505.27625237 470.18763053 -1504.81642557 444.60963022 -1502 419 C-1501.85383171 417.62111199 -1501.70783438 416.24220585 -1501.56201172 414.86328125 C-1497.7912561 379.83322655 -1491.99335751 343.46039759 -1480.66552734 310.01464844 C-1479.90420199 307.71000544 -1479.19463436 305.39238753 -1478.48828125 303.0703125 C-1461.05029119 246.09686151 -1432.03320787 187.45088797 -1388.57421875 145.5703125 C-1386.78687556 143.7874044 -1385.14732352 141.91278625 -1383.5 140 C-1377.81797255 133.43213308 -1371.59525338 127.63574327 -1365 122 C-1364.06414062 121.18660156 -1363.12828125 120.37320313 -1362.1640625 119.53515625 C-1326.98684931 89.14297664 -1285.00181793 64.15423389 -1241 49 C-1240.14567383 48.70029297 -1239.29134766 48.40058594 -1238.41113281 48.09179688 C-1180.38479986 27.80174093 -1120.36141044 19.32214628 -1059.05517197 19.55296707 C-1056.38937029 19.56267528 -1053.72358448 19.56795211 -1051.05776978 19.57272339 C-1022.86749663 19.63904832 -995.00827268 20.60314536 -967 24 C-964.88527774 24.24938838 -962.77053076 24.4985672 -960.65576172 24.74755859 C-907.37402993 31.09506088 -854.6551304 41.43147096 -803 56 C-802.26096436 56.20774048 -801.52192871 56.41548096 -800.76049805 56.6295166 C-763.82206643 67.01905052 -763.82206643 67.01905052 -748.03955078 72.890625 C-743.21268251 74.70256936 -743.21268251 74.70256936 -738.19921875 74.390625 C-737.47347656 73.93171875 -736.74773438 73.4728125 -736 73 C-735.19304688 72.53464844 -734.38609375 72.06929688 -733.5546875 71.58984375 C-732.22824219 70.77193359 -732.22824219 70.77193359 -730.875 69.9375 C-723.26546612 65.43542645 -715.30031778 61.76903103 -707.28076172 58.0625 C-705.26233648 57.12221027 -703.25590931 56.1621236 -701.25390625 55.1875 C-690.09282176 49.81226198 -678.60142354 45.33079842 -667 41 C-666.19481934 40.69594238 -665.38963867 40.39188477 -664.56005859 40.07861328 C-638.95653639 30.54324586 -611.02215606 23.91195535 -584 20 C-582.8749707 19.83306641 -581.74994141 19.66613281 -580.59082031 19.49414062 C-506.63417523 8.70352135 -425.81880955 10.38933941 -352.40014648 25.53637695 C-347.23289681 26.53450605 -342.83123368 26.44774975 -337.9140625 24.6796875 C-313.9833511 16.41023221 -288.77561883 11.92790824 -264 7 C-263.30694763 6.86122437 -262.61389526 6.72244873 -261.89984131 6.57946777 C-240.09421543 2.21848082 -218.07559718 -0.44100717 -196 -3 C-195.22020782 -3.09104004 -194.44041565 -3.18208008 -193.63699341 -3.27587891 C-129.91143024 -10.6848071 -63.4233202 -9.54640067 0 0 Z M-294 68 C-294.70672852 68.17450684 -295.41345703 68.34901367 -296.14160156 68.52880859 C-299.72653251 69.4264027 -303.28902029 70.39232632 -306.84472656 71.39892578 C-309.53450221 72.14906484 -312.23216657 72.86806097 -314.9296875 73.58984375 C-325.49853022 76.44944272 -335.73297109 79.27524499 -345.62109375 84.03125 C-353.73131962 86.35649395 -362.76379435 83.36425463 -370.8125 81.625 C-371.87637939 81.40021973 -372.94025879 81.17543945 -374.03637695 80.94384766 C-379.27424472 79.83029469 -384.48816065 78.65777664 -389.6875 77.375 C-397.87309711 75.44061991 -406.22337631 74.44275065 -414.55224609 73.33203125 C-416.62701412 73.05059453 -418.69869138 72.74651652 -420.76953125 72.4375 C-431.99438142 70.79546478 -443.29159933 70.06065089 -454.60253906 69.26538086 C-456.53752852 69.11423588 -458.47190138 68.95172919 -460.40270996 68.75422668 C-467.40867871 68.04993441 -474.33610464 67.83926093 -481.375 67.83203125 C-482.53837891 67.82870285 -483.70175781 67.82537445 -484.90039062 67.82194519 C-487.35774342 67.81690711 -489.81510298 67.81453589 -492.27246094 67.81469727 C-495.93436816 67.81253869 -499.59595952 67.79442672 -503.2578125 67.77539062 C-519.58858241 67.73686849 -535.7369958 68.53159769 -552 70 C-552.88919632 70.08002258 -553.77839264 70.16004517 -554.6945343 70.24249268 C-566.96206064 71.36679502 -578.94472489 73.48401281 -591 76 C-592.07024414 76.22204102 -593.14048828 76.44408203 -594.24316406 76.67285156 C-620.23014265 82.11581712 -645.62429419 89.36391617 -670 100 C-671.15757812 100.47566406 -672.31515625 100.95132813 -673.5078125 101.44140625 C-690.61010359 108.54810897 -710.37105128 117.48505142 -724.68017578 129.39892578 C-727.99220162 132.1126743 -729.38617509 132.9943513 -733.8203125 133.03515625 C-738.67675455 132.03941094 -743.26540842 130.22600132 -747.875 128.4375 C-767.27898672 121.15399368 -787.25483467 115.55182653 -807.16113281 109.8203125 C-809.9196036 109.02323116 -812.67489841 108.21595156 -815.4296875 107.40625 C-825.07685386 104.5871168 -834.74522224 102.0282818 -844.53662109 99.7578125 C-849.66365294 98.5680398 -854.74022499 97.2801213 -859.8125 95.875 C-866.32497848 94.1001707 -872.85906313 92.83645209 -879.49609375 91.6484375 C-882.04092355 91.17748795 -884.50494261 90.6690044 -887 90 C-892.80711522 88.46983141 -898.73881342 87.49418543 -904.64501953 86.4296875 C-907.01466058 85.99732504 -909.38020111 85.54613053 -911.74609375 85.09375 C-926.586961 82.32479422 -941.52164314 80.46877745 -956.50390625 78.66259766 C-957.78332596 78.50782707 -957.78332596 78.50782707 -959.08859253 78.34992981 C-960.69961442 78.15573591 -962.31087073 77.96347334 -963.9223938 77.77348328 C-967.65636419 77.32527338 -971.317268 76.75466157 -975 76 C-977.48142807 75.84473104 -979.95391147 75.72254619 -982.4375 75.625 C-987.96741032 75.38052453 -993.43091746 74.98109288 -998.921875 74.26953125 C-1016.23708249 72.08929875 -1033.36815782 71.69468907 -1050.8125 71.6875 C-1051.96970551 71.68418671 -1053.12691101 71.68087341 -1054.31918335 71.67745972 C-1069.75346273 71.65136176 -1084.98724788 72.36255244 -1100.35586548 73.76577759 C-1103.90030701 74.07975089 -1107.44557232 74.32696405 -1110.99609375 74.5625 C-1112.63481445 74.67464844 -1112.63481445 74.67464844 -1114.30664062 74.7890625 C-1116.45221279 74.93361758 -1118.59806659 75.07403496 -1120.74414062 75.2109375 C-1126.56400919 75.61640582 -1132.15037671 76.29879122 -1137.8527832 77.53613281 C-1140.5121268 78.11063569 -1143.18077618 78.50101426 -1145.875 78.875 C-1174.6446364 83.25735159 -1204.52166745 89.99707067 -1231.06542969 102.13598633 C-1233.35509138 103.15859016 -1235.68008034 103.97044365 -1238.0625 104.75 C-1244.93046568 107.20760769 -1251.33720309 110.51678748 -1257.79931641 113.8671875 C-1260.02752 115.01416605 -1262.26820973 116.13329952 -1264.51171875 117.25 C-1304.07072613 137.18983865 -1340.95770439 167.84975983 -1367.66601562 203.23339844 C-1368.55033722 204.40450954 -1369.43961989 205.57189205 -1370.33398438 206.73535156 C-1382.19667413 222.17416604 -1392.02522197 238.75213668 -1401 256 C-1401.3153772 256.60225403 -1401.63075439 257.20450806 -1401.95568848 257.82501221 C-1405.75352928 265.10607242 -1409.03575785 272.40251768 -1411.88037109 280.10498047 C-1412.83366429 282.56990649 -1413.87530979 284.85906448 -1415.1015625 287.1953125 C-1417.38915315 291.58464141 -1418.86871301 296.17048042 -1420.375 300.875 C-1420.98647521 302.75797623 -1421.59846211 304.64078636 -1422.2109375 306.5234375 C-1422.51225586 307.45381836 -1422.81357422 308.38419922 -1423.12402344 309.34277344 C-1423.89833976 311.69161928 -1424.70570754 314.02316656 -1425.5390625 316.3515625 C-1433.16182547 337.82238706 -1437.62626378 360.3622387 -1441.45019531 382.77929688 C-1441.80405952 384.85219946 -1442.16483855 386.92393964 -1442.53417969 388.99414062 C-1443.89321548 396.63839825 -1445.0003791 404.30087505 -1446 412 C-1446.09085876 412.67784546 -1446.18171753 413.35569092 -1446.27532959 414.05407715 C-1453.46591471 468.00581567 -1452.70438214 525.04762016 -1446 579 C-1445.837707 580.35264083 -1445.67590082 581.70534019 -1445.51464844 583.05810547 C-1444.65758617 590.10475863 -1443.6770422 597.1247278 -1442.59472656 604.14013672 C-1442.02968543 607.80733714 -1441.47990962 611.47647686 -1440.93382263 615.14653015 C-1438.29887589 632.83313428 -1435.57548461 650.4754208 -1432 668 C-1431.58248302 670.0818609 -1431.16587097 672.16390342 -1430.75 674.24609375 C-1430.09854097 677.50678953 -1429.44656845 680.76737023 -1428.79150391 684.02734375 C-1426.93981885 693.24974402 -1425.14963941 702.48228624 -1423.515625 711.74609375 C-1420.75999996 727.35338386 -1417.19853185 742.79798642 -1413.46777344 758.19677734 C-1410.02507485 772.40806217 -1410.02507485 772.40806217 -1409 779.125 C-1408.34556115 783.36225309 -1407.39882228 787.41192839 -1406.25390625 791.54296875 C-1403.8407677 800.40677688 -1401.73715992 809.33947011 -1399.62530518 818.27893066 C-1395.56198983 835.46175342 -1391.40112173 852.61891867 -1387.125 869.75 C-1386.90238495 870.64536469 -1386.6797699 871.54072937 -1386.45040894 872.46322632 C-1383.48880351 884.36475469 -1380.3383799 896.19885089 -1377 908 C-1376.61987733 909.35051845 -1376.23998931 910.70110297 -1375.86035156 912.05175781 C-1374.5682703 916.64585995 -1373.27152007 921.23864176 -1371.97485352 925.83145142 C-1369.83586484 933.41213122 -1367.7193111 940.99699437 -1365.68896484 948.60766602 C-1362.48422958 960.60782105 -1358.80771838 972.44771967 -1355.08984375 984.296875 C-1353.50021796 989.3696411 -1351.96680828 994.45310695 -1350.5 999.5625 C-1344.70953546 1019.59971174 -1337.94816217 1039.37342445 -1331.28027344 1059.1328125 C-1329.83251226 1063.44297096 -1328.43323458 1067.7662548 -1327.0625 1072.1015625 C-1326.72476562 1073.16890625 -1326.38703125 1074.23625 -1326.0390625 1075.3359375 C-1325.34410969 1077.53575053 -1324.6514151 1079.73627819 -1323.9609375 1081.9375 C-1322.21527859 1087.44098955 -1320.33692905 1092.72430263 -1318 1098 C-1317.01556907 1100.60884529 -1316.10054351 1103.24044714 -1315.1875 1105.875 C-1314.93105713 1106.60678467 -1314.67461426 1107.33856934 -1314.41040039 1108.0925293 C-1313.3416896 1111.14296408 -1312.27875018 1114.1953621 -1311.22070312 1117.24951172 C-1308.08484281 1126.3000195 -1304.77091206 1135.19027502 -1301 1144 C-1299.82399852 1146.7878194 -1298.65907871 1149.58010469 -1297.5 1152.375 C-1297.20061523 1153.09679443 -1296.90123047 1153.81858887 -1296.59277344 1154.56225586 C-1294.2660521 1160.22839446 -1292.19265794 1165.94763079 -1290.23828125 1171.75390625 C-1289.06439705 1174.83118629 -1287.65778223 1177.69745713 -1286.15844727 1180.6262207 C-1283.95522942 1185.14084391 -1282.07227729 1189.79924967 -1280.1144104 1194.4241333 C-1272.94719689 1211.30173871 -1265.00306684 1227.76977115 -1256.87548828 1244.20214844 C-1255.28796244 1247.41229458 -1253.71699266 1250.63019265 -1252.15234375 1253.8515625 C-1233.13749367 1292.78315279 -1209.4961219 1331.77011489 -1180.0390625 1363.77734375 C-1178.18749705 1365.79562103 -1176.40167 1367.85349135 -1174.625 1369.9375 C-1153.82403431 1393.71003221 -1120.68486448 1420.32363516 -1087.8125 1422.7890625 C-1086 1423 -1086 1423 -1084 1424 C-1046.67350694 1426.26717674 -1014.48632359 1415.17782795 -986.26171875 1390.6171875 C-984.58810392 1389.118807 -982.92468464 1387.60893244 -981.2734375 1386.0859375 C-979.1610576 1384.1477745 -977.00001928 1382.28976729 -974.8125 1380.4375 C-971.49832084 1377.5483859 -968.6188662 1374.44429801 -965.77734375 1371.09375 C-963.91344459 1368.89803583 -961.99290495 1366.76236844 -960.0625 1364.625 C-957.37775263 1361.61234456 -954.81009477 1358.5442169 -952.3125 1355.375 C-948.31472443 1350.31482344 -944.09804002 1345.46622527 -939.85766602 1340.61010742 C-936.5861205 1336.8551197 -933.38236313 1333.06043936 -930.25 1329.1875 C-926.72097435 1324.82773656 -923.02030415 1320.66760006 -919.2421875 1316.5234375 C-916.95484096 1313.94917642 -914.78451729 1311.30710511 -912.625 1308.625 C-908.94168761 1304.06898641 -905.06847694 1299.75922509 -901.07983398 1295.47436523 C-898.14879145 1292.30684144 -895.37986806 1289.05920397 -892.6875 1285.6875 C-887.83445921 1279.65398983 -882.53733038 1274.07590425 -877.23046875 1268.4453125 C-874.2871576 1265.31956818 -871.43169781 1262.13126839 -868.62890625 1258.87890625 C-865.14838191 1254.86420071 -861.55963476 1250.94446014 -858 1247 C-857.278125 1246.195625 -856.55625 1245.39125 -855.8125 1244.5625 C-848.96900813 1236.93689477 -842.04128733 1229.3894589 -835.1015625 1221.8515625 C-834.1508538 1220.81788109 -833.20033055 1219.78402908 -832.25 1218.75 C-831.78899902 1218.24847412 -831.32799805 1217.74694824 -830.85302734 1217.23022461 C-828.27576056 1214.41811125 -825.7424239 1211.57492858 -823.25 1208.6875 C-820.55423046 1205.57452803 -817.70542673 1202.67833849 -814.76171875 1199.80078125 C-812.2458849 1197.22916395 -809.96135119 1194.47572256 -807.67578125 1191.69921875 C-804.61618536 1188.59683131 -804.61618536 1188.59683131 -802 1188 C-799.24522696 1189.2135564 -796.82600926 1190.47802383 -794.25 1192 C-786.72214996 1196.22335602 -779.23727218 1199.4587469 -771.078125 1202.26660156 C-769.57022455 1202.79876004 -768.07116333 1203.3561789 -766.578125 1203.92871094 C-759.09935435 1206.77163072 -751.52966946 1208.77958057 -743.75 1210.625 C-742.46818848 1210.93131348 -741.18637695 1211.23762695 -739.86572266 1211.55322266 C-731.25877207 1213.56905821 -722.81442627 1215.22259275 -714 1216 C-713.01644531 1216.10828125 -712.03289063 1216.2165625 -711.01953125 1216.328125 C-704.99932927 1216.95920824 -699.05025601 1217.1181178 -693 1217 C-694.27052296 1220.63006559 -695.65061845 1222.99121912 -698.3125 1225.75 C-702.25239398 1230.03187393 -705.75654019 1234.54333246 -709.25 1239.1875 C-720.38199409 1253.909364 -731.72131639 1268.78060873 -748 1278 C-748.89074219 1278.51304688 -749.78148437 1279.02609375 -750.69921875 1279.5546875 C-763.73169413 1286.57077606 -778.35083269 1290.05877101 -792.70678711 1293.26391602 C-796.7617998 1294.17692044 -800.68584175 1295.18695806 -804.61328125 1296.5546875 C-808.73071641 1297.97541004 -812.76527029 1298.78322738 -817.0625 1299.4375 C-823.43979784 1300.48594833 -829.66441813 1301.81805806 -835.91503906 1303.45556641 C-839.37553562 1304.35745938 -842.82996227 1305.19099573 -846.3359375 1305.8984375 C-870.56823726 1310.801264 -899.15262717 1320.54549562 -913.79296875 1341.953125 C-920.66794751 1353.61166504 -922.81445378 1364.28489605 -920.31640625 1377.66015625 C-914.86883776 1396.62492787 -900.85041574 1410.37567543 -884.1875 1420.125 C-883.30022217 1420.64852051 -882.41294434 1421.17204102 -881.4987793 1421.71142578 C-830.54403231 1451.45176862 -753.69885601 1460.26022281 -696.48046875 1446.77734375 C-693.25704557 1446.05740973 -690.05198924 1445.49637264 -686.79296875 1444.97558594 C-677.56700366 1443.48363933 -668.82692711 1441.05488434 -660 1438 C-658.76056641 1437.58041016 -658.76056641 1437.58041016 -657.49609375 1437.15234375 C-625.46091362 1426.25377731 -597.7930957 1410.00326681 -571.85742188 1388.38208008 C-570.91447266 1387.59599365 -569.97152344 1386.80990723 -569 1386 C-568.99365209 1386.81711897 -568.99365209 1386.81711897 -568.98717594 1387.65074539 C-568.88173464 1401.19658575 -568.7728418 1414.74239505 -568.66066074 1428.2881813 C-568.60649501 1434.84005902 -568.55329961 1441.39194128 -568.50268555 1447.94384766 C-568.29246907 1475.0599943 -568.03465226 1502.17306478 -567.5078125 1529.28515625 C-567.47777476 1530.84171055 -567.47777476 1530.84171055 -567.4471302 1532.42971039 C-566.48411848 1581.58717789 -563.35456038 1630.43251142 -559.50740528 1679.43555355 C-559.13291069 1684.22899191 -558.77868652 1689.02340927 -558.4375 1693.81933594 C-558.35185791 1695.00196014 -558.26621582 1696.18458435 -558.17797852 1697.40304565 C-558.02518027 1699.52471128 -557.87672814 1701.64669785 -557.73413086 1703.76907349 C-557.31645634 1709.49711952 -556.54197485 1715.04640747 -555.4312439 1720.68244934 C-554.92594959 1723.39795478 -554.73000754 1726.05403261 -554.625 1728.8125 C-553.06686508 1751.45918514 -546.53862556 1773.70104964 -539 1795 C-538.60039063 1796.13953125 -538.20078125 1797.2790625 -537.7890625 1798.453125 C-534.83636732 1806.49872393 -531.12694179 1814.10024577 -527.19042969 1821.69726562 C-525.88915548 1824.21441458 -524.60506712 1826.74000773 -523.3203125 1829.265625 C-518.38267377 1838.90762141 -513.38815312 1848.22744642 -507 1857 C-505.92298828 1858.485 -505.92298828 1858.485 -504.82421875 1860 C-502.58639809 1863.03014058 -500.30402103 1866.0199728 -498 1869 C-497.0409375 1870.27037109 -497.0409375 1870.27037109 -496.0625 1871.56640625 C-476.62111717 1896.43770655 -451.82310539 1914.53095441 -423 1927 C-421.40865234 1927.70576172 -421.40865234 1927.70576172 -419.78515625 1928.42578125 C-395.81957412 1938.38830767 -369.5812533 1940.219876 -343.9375 1940.1875 C-343.12396057 1940.18722809 -342.31042114 1940.18695618 -341.472229 1940.18667603 C-328.87932036 1940.16736317 -316.48834611 1939.7321165 -304 1938 C-302.81664062 1937.84724609 -302.81664062 1937.84724609 -301.609375 1937.69140625 C-291.1986185 1936.33129129 -281.1748503 1934.17822036 -271.0625 1931.375 C-267.49369748 1930.38836423 -263.91438226 1929.48305271 -260.3125 1928.625 C-245.91489962 1925.18867187 -231.94945565 1920.94901477 -218 1916 C-216.78183594 1915.56945313 -215.56367187 1915.13890625 -214.30859375 1914.6953125 C-192.07635062 1906.46114838 -170.26676257 1895.86639594 -151 1882 C-150.44119141 1881.59813477 -149.88238281 1881.19626953 -149.30664062 1880.78222656 C-141.15474646 1874.85227307 -133.67648349 1868.29962297 -126.39697266 1861.33398438 C-125.20568754 1860.19641327 -124.00070236 1859.07321776 -122.79296875 1857.953125 C-109.74901205 1845.52018867 -99.61178669 1829.77091118 -90.6875 1814.25 C-90.18355713 1813.374646 -89.67961426 1812.49929199 -89.16040039 1811.59741211 C-86.09913297 1806.18840576 -83.43397224 1800.71570939 -81 1795 C-80.35631769 1793.56153553 -79.71072054 1792.1239251 -79.0625 1790.6875 C-78.72992187 1789.92953125 -78.39734375 1789.1715625 -78.0546875 1788.390625 C-77.34812633 1786.78908635 -76.62391301 1785.19522643 -75.8828125 1783.609375 C-67.08851335 1763.95152984 -62.30182778 1741.73732721 -57.6171875 1720.76171875 C-57.24439085 1719.09357171 -56.85782668 1717.42830307 -56.4453125 1715.76953125 C-55.20296911 1710.67592333 -54.55953657 1705.5850431 -53.95629883 1700.38012695 C-53.14680206 1693.67958271 -52.05511334 1687.03211215 -50.95504761 1680.37390137 C-48.98253701 1668.42758196 -47.20574508 1656.47763152 -45.65185547 1644.46826172 C-44.64953904 1636.76957713 -43.59216753 1629.08158011 -42.4765625 1621.3984375 C-42.33896011 1620.45045792 -42.20135773 1619.50247833 -42.05958557 1618.52577209 C-41.84797035 1617.06825783 -41.84797035 1617.06825783 -41.63208008 1615.58129883 C-37.23822919 1585.31523799 -33.30424846 1554.99478332 -29.46282959 1524.65441895 C-29.0185893 1521.14677776 -28.57317712 1517.63928737 -28.12744141 1514.13183594 C-25.42807361 1492.87336707 -22.78988088 1471.61079918 -20.39746094 1450.31542969 C-19.3960419 1441.4064957 -18.34359524 1432.50528131 -17.25091553 1423.60708618 C-15.78605513 1411.67066539 -14.3683894 1399.72937134 -13.02148438 1387.77902222 C-12.84247209 1386.19384991 -12.66216304 1384.60882343 -12.48046875 1383.0239563 C-12.22782356 1380.81587388 -11.98038231 1378.60726809 -11.734375 1376.3984375 C-11.59225586 1375.13692871 -11.45013672 1373.87541992 -11.30371094 1372.57568359 C-11.00264873 1369.03118436 -10.94627835 1365.55534429 -11 1362 C-9.7625 1362.45375 -8.525 1362.9075 -7.25 1363.375 C-2.67531609 1364.90228475 1.85414158 1365.76023485 6.6171875 1366.47265625 C9.44931144 1366.91415363 12.25098615 1367.42299744 15.06640625 1367.95703125 C50.35633456 1374.38662314 87.33285114 1373.64042707 122.81231689 1369.26940918 C125.20104518 1368.97524165 127.59049087 1368.68732914 129.97998047 1368.39941406 C135.2182617 1367.76431624 140.45341685 1367.10624712 145.6875 1366.4375 C146.52212769 1366.33176666 147.35675537 1366.22603333 148.2166748 1366.11709595 C150.58696214 1365.81374406 152.95570914 1365.50049523 155.32421875 1365.18359375 C156.02792099 1365.09405426 156.73162323 1365.00451477 157.45664978 1364.91226196 C161.27104896 1364.38876331 164.45784256 1363.46004544 168 1362 C170.33104464 1361.48453685 172.67409509 1361.02199293 175.0234375 1360.59765625 C176.38804879 1360.34455171 177.75263123 1360.09129163 179.1171875 1359.83789062 C181.24493994 1359.44904411 183.37312346 1359.06283753 185.50195312 1358.67993164 C187.57298202 1358.30540939 189.6419503 1357.92077534 191.7109375 1357.53515625 C192.94118652 1357.312229 194.17143555 1357.08930176 195.43896484 1356.85961914 C199.26133315 1355.93691526 202.41801829 1354.60372121 206 1353 C207.92707031 1352.47189904 209.85509842 1351.94568026 211.79516602 1351.4675293 C224.4063684 1348.34742441 236.14502346 1343.23577435 248 1338 C248.78793945 1337.65565918 249.57587891 1337.31131836 250.38769531 1336.95654297 C283.13538416 1322.54609465 315.28319855 1301.93978091 341.390625 1277.41796875 C343.4407167 1275.51825803 345.50849524 1273.74420335 347.6875 1272 C360.4088534 1261.22863508 373.24017938 1242.67391625 376 1226 C376.99148379 1212.38086848 375.13369161 1202.02708429 366.54296875 1191.15625 C358.36542369 1182.08335329 345.7991724 1177.80185951 333.87084961 1176.71484375 C330.67840332 1176.59939717 327.50670402 1176.58354173 324.3125 1176.625 C323.16966553 1176.63442627 322.02683105 1176.64385254 320.84936523 1176.65356445 C312.47408783 1176.80195117 304.6004559 1177.6938746 296.42285156 1179.48632812 C291.2821884 1180.57620673 286.10541084 1181.48718365 280.9375 1182.4375 C279.78032471 1182.65220947 278.62314941 1182.86691895 277.4309082 1183.08813477 C258.36091412 1186.61745537 239.27042931 1189.78328395 220 1192 C218.68201416 1192.15879639 218.68201416 1192.15879639 217.33740234 1192.32080078 C179.4463256 1196.74598483 124.9400468 1201.15785108 92 1178 C93.66672632 1173.22454819 96.22189205 1169.14754949 98.875 1164.875 C99.36403809 1164.08077637 99.85307617 1163.28655273 100.35693359 1162.46826172 C103.73735989 1156.99349935 107.17536745 1151.55629871 110.625 1146.125 C154.70878625 1076.62143421 194.24879357 1003.07037204 227.60058594 927.81542969 C230.24647482 921.84927495 232.98697257 915.97408327 235.94360352 910.15600586 C237.3255569 907.33556899 238.43448979 904.45298543 239.5 901.5 C240.95928671 897.59493059 242.49707234 893.87617239 244.4375 890.1875 C246.91611886 885.40013647 248.77542211 880.43829736 250.62646484 875.38671875 C254.24349358 865.54508939 258.18188555 855.81157227 262.625 846.3125 C265.02106474 841.14451722 266.88206894 835.83736741 268.75390625 830.4609375 C269.88598664 827.31666408 271.12094463 824.25806045 272.4375 821.1875 C275.40177554 814.21492734 277.84557242 807.07526463 280.32861328 799.92138672 C281.19602261 797.43901894 282.09444117 794.96868114 283 792.5 C284.85434278 787.42894016 286.64881428 782.33744154 288.43530273 777.2421875 C289.99788717 772.79887427 291.59162576 768.36829143 293.2109375 763.9453125 C297.10735443 753.28083482 300.87835715 742.65833437 303.9296875 731.71875 C305.54370608 726.11091902 307.43645938 720.60590617 309.359375 715.09765625 C312.78805841 705.20703439 315.65712085 695.22191162 318.28808594 685.09008789 C320.00922176 678.50543948 321.89576655 671.98967701 323.87890625 665.48046875 C327.02273538 655.12074308 329.77913306 644.68089128 332.4375 634.1875 C332.67333801 633.26167114 332.90917603 632.33584229 333.15216064 631.38195801 C337.13143386 615.74682662 340.84688667 600.07251823 344.27539062 584.30712891 C344.95291817 581.21488222 345.65169496 578.12843295 346.359375 575.04296875 C349.75120468 560.12226621 352.28509324 545.09109265 354.68426514 529.98223877 C355.00073245 527.99540158 355.32040786 526.00910642 355.64111328 524.02294922 C361.7148221 488.24584081 361.7148221 488.24584081 364.82421875 452.15234375 C365 449 365 449 365.4765625 446.93701172 C366.25037142 442.59516408 366.37281419 438.25734266 366.55078125 433.85546875 C366.59262039 432.84743698 366.63445953 431.83940521 366.67756653 430.80082703 C367.09888981 419.7751891 367.18609594 408.75221804 367.18530273 397.71948242 C367.18750522 394.3044007 367.20580928 390.88963521 367.22460938 387.47460938 C367.25614167 374.90533779 366.74700055 362.59948187 365.23927307 350.11981201 C364.84750136 346.64895595 364.59123024 343.16910607 364.3125 339.6875 C360.70797507 303.88426351 348.38601226 267.61026567 324.30810547 240.49804688 C322.32128519 238.22273347 320.44801742 235.85945399 318.5625 233.5 C314.69609833 228.7450895 310.61471132 224.23338355 306.42407227 219.765625 C303.76437226 216.92861166 301.16945527 214.05399606 298.62890625 211.109375 C294.94286239 206.87618401 291.04186842 202.89384411 287.0625 198.9375 C286.39798828 198.26912109 285.73347656 197.60074219 285.04882812 196.91210938 C281.1035271 192.9744617 277.04852655 189.2243034 272.82836914 185.58325195 C270.40080586 183.4811358 268.04614433 181.30390316 265.6875 179.125 C260.28499945 174.20486557 254.71013746 169.55742254 249 165 C248.22946289 164.3800415 248.22946289 164.3800415 247.44335938 163.74755859 C218.7290834 140.66676663 187.42576014 119.62066966 154 104 C153.37561035 103.70689941 152.7512207 103.41379883 152.10791016 103.11181641 C149.46779335 101.87286808 146.82671006 100.63633233 144.17871094 99.41430664 C141.0979218 97.99224862 138.05802424 96.53072388 135.0625 94.9375 C130.52390725 92.61843836 125.70505252 90.96878483 120.92749023 89.21728516 C117.26067349 87.86822593 113.6703297 86.46193146 110.125 84.8125 C106.30368777 83.05105703 102.42384847 81.86249566 98.3828125 80.70703125 C95.65199956 79.89674085 93.0110929 78.89219091 90.3515625 77.875 C80.5242021 74.21830776 70.59893421 71.25178927 60.43432617 68.69970703 C56.47644638 67.69803942 52.78840809 66.53584112 49 65 C47.05168267 64.51985912 45.09140555 64.08715599 43.125 63.6875 C38.77978475 62.79513897 34.44839802 61.88085601 30.12890625 60.87109375 C-0.54673884 53.77839366 -31.67817364 50.61149839 -63 48 C-64.49079323 47.86835701 -64.49079323 47.86835701 -66.01170349 47.73405457 C-73.70925473 47.08714235 -81.34345797 46.84037789 -89.06640625 46.83203125 C-90.2826619 46.82775116 -91.49891754 46.82347107 -92.75202942 46.81906128 C-96.68887565 46.80909399 -100.62564942 46.80863422 -104.5625 46.8125 C-105.57428692 46.81312124 -105.57428692 46.81312124 -106.60651398 46.81375504 C-169.94597684 46.86246452 -232.35901953 52.70444139 -294 68 Z " fill="#000000" transform="translate(1505,7)"/>
<path d="M0 0 C1.57423233 0.00432037 1.57423233 0.00432037 3.18026733 0.00872803 C9.44288458 0.02883312 15.70528331 0.06456245 21.96777344 0.10864258 C24.34446485 0.12293686 26.72092976 0.12947045 29.09765625 0.13085938 C63.81284515 0.21987268 100.65348023 4.03180435 134.2734375 12.96484375 C137.54542394 13.82776034 140.82192113 14.67053598 144.1015625 15.50390625 C155.90381143 18.51888252 167.60786293 21.76597646 179.24365234 25.37060547 C181.74925504 26.14406324 184.25909446 26.90255174 186.76953125 27.66015625 C188.42990035 28.16857625 190.09006415 28.67766729 191.75 29.1875 C192.48702148 29.40857422 193.22404297 29.62964844 193.98339844 29.85742188 C199.12672474 31.45879848 203.92962906 33.53749034 208.81030273 35.81079102 C211.68165919 37.12233211 214.57636523 38.33733133 217.5 39.52734375 C254.14238174 54.49107812 288.80728559 74.28281634 319.6875 99.125 C320.58984375 99.846875 321.4921875 100.56875 322.421875 101.3125 C337.82118321 113.77436792 352.52404404 126.90043126 366.5625 140.875 C367.26415283 141.57197998 367.96580566 142.26895996 368.6887207 142.98706055 C373.22497666 147.53733893 377.50631002 152.24819389 381.6875 157.125 C382.67259292 158.25441604 383.65824431 159.38334527 384.64453125 160.51171875 C413.75304839 194.04870258 424.2107904 229.65402199 424.6875 274.125 C424.70816442 275.71940112 424.72883539 277.31380216 424.74951172 278.90820312 C425.13534758 311.26989804 423.59583059 342.92949394 419.6875 375.0625 C419.55607605 376.14323792 419.4246521 377.22397583 419.28924561 378.33746338 C418.90781666 381.44330024 418.51836704 384.54799818 418.125 387.65234375 C417.95310654 389.03792229 417.95310654 389.03792229 417.77774048 390.45149231 C417.13693632 395.40731154 416.27637507 400.23206509 415.14254761 405.09831238 C414.52378442 407.8541552 414.11062147 410.62113136 413.72265625 413.41796875 C413.56394043 414.53623047 413.40522461 415.65449219 413.24169922 416.80664062 C412.99830811 418.54204102 412.99830811 418.54204102 412.75 420.3125 C411.54003844 428.72235419 410.24058622 437.02413734 408.328125 445.3046875 C407.72805027 447.94647991 407.25377664 450.57782478 406.8125 453.25 C405.72062184 459.47740678 404.12109307 465.57624664 402.53955078 471.69384766 C402.33056152 472.50772949 402.12157227 473.32161133 401.90625 474.16015625 C401.71998047 474.8756665 401.53371094 475.59117676 401.34179688 476.32836914 C400.76093741 478.81110987 400.25326735 481.29240089 399.76293945 483.79418945 C398.72797329 489.02471391 397.5214558 494.20239917 396.26171875 499.3828125 C396.03225052 500.32953827 395.80278229 501.27626404 395.56636047 502.25167847 C395.08255726 504.24358035 394.59761215 506.2352052 394.11157227 508.2265625 C393.38228211 511.22010882 392.66074286 514.21545496 391.93945312 517.2109375 C389.52347178 527.16714948 386.92594515 536.99294271 383.77075195 546.74072266 C382.34109343 551.20723752 381.12652298 555.71487695 379.9375 560.25 C374.16568946 581.79485917 367.74242848 603.22231165 360.125 624.1875 C358.03096597 629.98383872 356.28414687 635.82415896 354.6796875 641.7734375 C353.53480392 645.64080013 352.14108214 649.36539297 350.6875 653.125 C350.19829403 654.41110697 349.71000118 655.69756167 349.22265625 656.984375 C348.98200439 657.61931885 348.74135254 658.2542627 348.4934082 658.90844727 C346.0567878 665.35408843 343.73260964 671.80956372 341.64453125 678.37890625 C340.48596026 681.70329565 339.08090599 684.8922981 337.6875 688.125 C336.73443335 690.5997697 335.79559631 693.07586049 334.875 695.5625 C334.61855713 696.24916748 334.36211426 696.93583496 334.09790039 697.64331055 C332.76872351 701.20385174 331.45039994 704.76821721 330.140625 708.3359375 C327.63190991 715.1399013 324.98202601 721.80013515 321.89453125 728.3671875 C320.52820687 731.4889513 319.41919043 734.65225979 318.3125 737.875 C316.2905903 743.69835505 313.87307937 749.17937355 311.20581055 754.72290039 C309.46612081 758.36631183 307.94085968 761.99650693 306.625 765.8125 C304.88535728 770.84396666 302.6090675 775.48517276 300.15234375 780.203125 C298.84693012 782.80699004 297.67895253 785.43665183 296.54760742 788.11962891 C293.29247615 795.70908343 289.73424718 803.17392187 286.27636719 810.67236328 C284.7421679 814.00620569 283.21846013 817.34469119 281.6953125 820.68359375 C274.29223526 836.8177944 266.48614931 852.74051919 258.5625 868.625 C258.06352203 869.62813232 257.56454407 870.63126465 257.05044556 871.66479492 C250.74394054 884.32939456 244.21096175 896.8381471 237.37109375 909.22314453 C234.77081558 913.94133627 232.2816844 918.71227128 229.8125 923.5 C224.85025947 933.01182877 219.4343316 942.24094543 213.9921875 951.484375 C211.34901686 955.977616 208.77535263 960.50234827 206.25 965.0625 C195.42885674 984.48736009 183.54332925 1003.32086697 171.6875 1022.125 C164.44169611 1014.89123233 164.44169611 1014.89123233 162.6875 1012.125 C163.04554451 1007.63829143 164.38702886 1004.29713409 166.48828125 1000.3515625 C167.33616211 998.7428125 167.33616211 998.7428125 168.20117188 997.1015625 C168.79478516 995.99554687 169.38839844 994.88953125 170 993.75 C171.16322937 991.55493595 172.32600007 989.35962876 173.48828125 987.1640625 C174.04153076 986.12161377 174.59478027 985.07916504 175.16479492 984.00512695 C178.26095831 978.14887563 181.07223751 972.46204341 183.25 966.1875 C183.64316406 965.06472656 184.03632812 963.94195313 184.44140625 962.78515625 C185.6180177 959.32909063 186.78102344 955.86908274 187.9309082 952.40405273 C188.41506441 950.94564738 188.90165056 949.48804506 189.39135742 948.03149414 C196.68488128 926.24889143 201.40185341 904.67885994 203.39379883 881.77441406 C203.6875 879.125 203.6875 879.125 204.19578552 876.80419922 C204.70757202 874.01563382 204.82824166 871.44216723 204.84863281 868.60839844 C204.85808929 867.51825439 204.86754578 866.42811035 204.87728882 865.30493164 C204.88168976 864.12664795 204.8860907 862.94836426 204.890625 861.734375 C204.90121445 859.88138794 204.90121445 859.88138794 204.91201782 857.9909668 C204.92976514 853.95226995 204.93671603 849.91372806 204.9375 845.875 C204.93779457 845.18531631 204.93808914 844.49563263 204.93839264 843.78504944 C204.94125418 802.37135533 200.73181929 762.00335557 195.40698242 720.96295166 C191.82794776 693.36029523 190.21216074 665.96457282 190.6875 638.125 C190.69620117 637.1673877 190.70490234 636.20977539 190.71386719 635.22314453 C190.99335401 608.69598986 195.40595411 582.08017962 199.80273438 555.97167969 C201.62492201 544.9724493 203.06556919 533.93827429 204.4375 522.875 C204.54441162 522.01656494 204.65132324 521.15812988 204.76147461 520.27368164 C205.06795196 517.80260399 205.37089504 515.33112784 205.671875 512.859375 C205.76019592 512.13969543 205.84851685 511.42001587 205.93951416 510.67852783 C207.05307867 501.39313354 207.82512181 492.15674591 208.00390625 482.8046875 C208.0350779 481.39027878 208.0350779 481.39027878 208.06687927 479.94729614 C208.1097783 477.96587875 208.15085996 475.98442123 208.19018555 474.00292969 C208.24944454 471.02788661 208.31465761 468.05302084 208.38085938 465.078125 C208.48419001 460.30934896 208.57167939 455.54052558 208.64593506 450.77120972 C208.67277772 449.06228606 208.70194875 447.35339665 208.73394775 445.64456177 C208.88709482 437.03522233 208.76542144 428.77292539 206.9375 420.3125 C206.75413086 419.41708496 206.57076172 418.52166992 206.38183594 417.59912109 C204.96333799 410.89957719 203.06114085 404.5477929 200.6875 398.125 C200.06522451 396.32161442 199.44716806 394.51677056 198.83203125 392.7109375 C198.13821377 390.68222567 197.44420094 388.65358065 196.75 386.625 C196.42612305 385.67512207 196.10224609 384.72524414 195.76855469 383.74658203 C193.34595253 376.74942375 190.60757866 369.92847095 187.6875 363.125 C187.25880615 362.1246875 186.8301123 361.124375 186.38842773 360.09375 C181.11781981 347.8743209 175.71547846 335.76773033 169.61279297 323.94042969 C168.68965232 322.12922286 167.79580987 320.3063609 166.91015625 318.4765625 C142.63361116 268.50386747 110.28029637 219.31714149 72.6640625 178.28125 C70.8065308 176.25485179 68.99061191 174.19981371 67.1875 172.125 C47.17867146 149.14023712 47.17867146 149.14023712 25.0703125 128.2265625 C22.43981562 125.9065505 19.89156981 123.51121493 17.34082031 121.10424805 C10.66901009 114.81110365 3.86346205 108.84274516 -3.3125 103.125 C-4.5379548 102.12161656 -5.76180485 101.11627123 -6.984375 100.109375 C-48.38063698 66.06404223 -93.91205198 38.92957429 -142.3125 16.125 C-139.60447035 13.41697035 -136.83012326 13.32572359 -133.1875 12.75 C-132.44612793 12.62625 -131.70475586 12.5025 -130.94091797 12.375 C-129.29515761 12.10109822 -127.64879668 11.83078847 -126.00195312 11.56347656 C-123.17138925 11.10199393 -120.34341734 10.62659828 -117.515625 10.1484375 C-112.41444989 9.28736112 -107.3108972 8.44157879 -102.20605469 7.60253906 C-99.55565876 7.16512981 -96.90667488 6.72001733 -94.2578125 6.2734375 C-77.4102576 3.46984357 -60.66926729 1.97682544 -43.59545898 1.46630859 C-38.68102611 1.31665381 -33.81829353 1.09871333 -28.92578125 0.60546875 C-19.3127812 -0.24301365 -9.64180367 -0.02867917 0 0 Z " fill="#336791" transform="translate(1391.3125,109.875)"/>
<path d="M0 0 C0.66257812 0.56976562 1.32515625 1.13953125 2.0078125 1.7265625 C2.67039062 2.23445312 3.33296875 2.74234375 4.015625 3.265625 C14.1863224 11.36229783 21.54682821 24.06933265 26.0078125 36.1640625 C26.26272461 36.85072998 26.51763672 37.53739746 26.78027344 38.24487305 C30.38698618 48.23837819 32.73196288 58.52093572 34.47973633 68.99194336 C34.99040843 71.6364363 35.67448625 74.14881545 36.4375 76.73046875 C38.18547099 83.03767339 39.15478189 89.37879877 40.0703125 95.8515625 C41.02553637 102.48825845 42.01337925 109.04922262 43.53686523 115.58056641 C44.39114972 119.47334018 44.94916373 123.40722114 45.5078125 127.3515625 C45.70008423 128.69758545 45.70008423 128.69758545 45.89624023 130.07080078 C46.97056296 137.88172723 47.68006705 145.70553582 48.30639648 153.56347656 C48.72759328 158.78048284 49.27747619 163.92480776 50.0703125 169.1015625 C50.94580074 175.34095758 51.30986851 181.53410765 51.55078125 187.828125 C51.59269592 188.91311279 51.6346106 189.99810059 51.67779541 191.1159668 C52.16054148 204.65014057 52.24970671 218.18484802 52.2578125 231.7265625 C52.25891714 232.72303928 52.25891714 232.72303928 52.2600441 233.73964691 C52.27875485 254.5498313 51.80718188 275.08039768 49.0078125 295.7265625 C48.8850293 296.68949219 48.76224609 297.65242188 48.63574219 298.64453125 C47.40721377 308.13432103 45.51338898 317.25363462 42.90625 326.45703125 C42.15930829 329.17524955 41.56405862 331.83006303 41.0703125 334.6015625 C39.62864755 342.12754222 37.26832853 349.41524616 35.0078125 356.7265625 C34.67297852 357.81549805 34.33814453 358.90443359 33.99316406 360.02636719 C32.86390919 363.68019184 31.71916435 367.32885549 30.5703125 370.9765625 C30.03168579 372.71558838 30.03168579 372.71558838 29.48217773 374.48974609 C27.26732141 381.44479972 24.63105379 387.99078241 21.49145508 394.57861328 C19.17533499 399.49288882 17.13216183 404.5141113 15.0703125 409.5390625 C11.62962618 417.86309406 8.12112307 426.14828477 4.48046875 434.38671875 C2.03464172 439.93362091 -0.3093051 445.4842185 -2.4296875 451.1640625 C-3.82392473 454.82497881 -5.2371334 458.38103597 -7.0546875 461.8515625 C-10.49188688 468.44988099 -12.63334005 475.60901912 -14.9296875 482.6640625 C-16.25489692 486.68094241 -17.71759785 490.58184445 -19.3671875 494.4765625 C-29.00218917 517.25020282 -36.02952789 541.02621528 -42.9921875 564.7265625 C-59.99281483 565.01083528 -76.32060663 562.75210909 -92.7421875 558.3515625 C-93.78777832 558.07175537 -94.83336914 557.79194824 -95.91064453 557.50366211 C-103.19436146 555.45334046 -110.07305193 552.77710251 -116.9921875 549.7265625 C-117.78995605 549.38044922 -118.58772461 549.03433594 -119.40966797 548.67773438 C-169.17894095 526.78922329 -204.86977522 486.63724602 -228.9921875 438.7265625 C-229.47300781 437.7778125 -229.95382812 436.8290625 -230.44921875 435.8515625 C-234.13888353 428.16768918 -236.70522713 420.0884218 -239.26904297 411.97607422 C-239.91877024 409.9549442 -240.60605878 407.95242877 -241.30859375 405.94921875 C-255.50419715 362.82840465 -250.41575512 317.45171926 -244.71557617 273.38427734 C-243.06350928 260.56112368 -241.72603057 247.75924494 -240.9296875 234.8515625 C-240.85169922 233.68882812 -240.77371094 232.52609375 -240.69335938 231.328125 C-239.17219971 207.39186057 -238.78943947 183.43547087 -238.80350876 159.45820236 C-238.80470621 157.19113775 -238.80414862 154.9240777 -238.80349731 152.65701294 C-238.80548309 120.350828 -239.17850822 87.92722713 -241.9921875 55.7265625 C-242.07976318 54.6862085 -242.16733887 53.64585449 -242.25756836 52.57397461 C-242.40676183 50.80305904 -242.55768885 49.03228801 -242.7109375 47.26171875 C-240.12061671 38.12520682 -223.62084025 31.14528272 -215.9921875 26.7265625 C-159.80438135 -4.40115598 -58.07482341 -48.64570079 0 0 Z " fill="#336791" transform="translate(860.9921875,603.2734375)"/>
<path d="M0 0 C0.14857499 9.87893385 -0.19275097 19.53559242 -1.1875 29.375 C-1.25180206 30.02697357 -1.31610413 30.67894714 -1.38235474 31.35067749 C-2.83947113 46.00973102 -5.0506682 60.53975268 -7.37695312 75.08203125 C-8.34260857 81.15446017 -9.2621093 87.23383151 -10.1875 93.3125 C-11.07221792 99.10535081 -11.9791279 104.89015444 -12.98046875 110.6640625 C-19.74816585 151.30629578 -20.55505028 193.37772606 -15.32421875 234.23388672 C-14.89334595 237.90993254 -14.71421381 241.55197596 -14.5625 245.25 C-14.13890195 253.35131263 -12.79347974 261.28537903 -11.51855469 269.2902832 C-9.45399882 282.28434121 -8.00304194 295.14161431 -7.47276306 308.28704834 C-7.21727278 313.69217253 -6.64446888 318.98858967 -5.90237427 324.34700012 C-3.87672017 339.1975422 -3.52574108 353.84298306 -3.625 368.8125 C-3.62898804 370.03680725 -3.63297607 371.2611145 -3.63708496 372.52252197 C-3.73872685 399.13662458 -5.62464883 424.3270219 -13 450 C-13.37388022 451.39899788 -13.74482858 452.79878164 -14.11328125 454.19921875 C-16.48123062 463.11576615 -19.16023962 471.58494073 -23 480 C-23.77105797 481.74990104 -24.54191015 483.49989277 -25.3125 485.25 C-25.87352436 486.50066299 -26.43540238 487.75094605 -27 489 C-30.4978414 485.89270349 -32.24584606 482.85339242 -34.171875 478.609375 C-34.45508606 477.99271973 -34.73829712 477.37606445 -35.03009033 476.74072266 C-35.63257093 475.42681931 -36.2311708 474.11113057 -36.82617188 472.79382324 C-38.07256221 470.03638225 -39.33996842 467.28879087 -40.60656738 464.54058838 C-41.23077059 463.18598719 -41.85406973 461.83096901 -42.47644043 460.4755249 C-51.5139798 440.79903603 -61.54645867 421.28736073 -73.13671875 402.99609375 C-78.74134518 393.98404245 -83.75251303 384.63850929 -88.4140625 375.109375 C-90.29361429 371.42434243 -92.32409515 367.84156355 -94.375 364.25 C-97.70057778 358.41105685 -100.81213334 352.50770106 -103.77563477 346.4777832 C-106.19951398 341.55999768 -108.72026395 336.70003139 -111.27709961 331.85009766 C-116.4436737 322.04929803 -121.39039182 312.17425816 -126.12280273 302.15649414 C-128.78795147 296.51548147 -131.5348007 290.92960571 -134.375 285.375 C-137.2690366 279.69118401 -139.66119962 273.91995804 -141.859375 267.93359375 C-142.90742882 265.23808547 -144.09292988 262.7447362 -145.4375 260.1875 C-147.96397777 255.32462429 -149.84758109 250.30174269 -151.68139648 245.1472168 C-153.09135724 241.23496032 -154.68338973 237.47538303 -156.4453125 233.70703125 C-159.01323891 228.13086645 -160.99621076 222.46392999 -162.875 216.625 C-163.56619107 214.51164836 -164.25760151 212.39836846 -164.94921875 210.28515625 C-165.29130371 209.23344238 -165.63338867 208.18172852 -165.98583984 207.09814453 C-167.2336961 203.28608485 -168.51725853 199.48667639 -169.80224609 195.68701172 C-176.87505651 174.71825498 -182.06430529 153.92732713 -185.50952148 132.05029297 C-185.83849228 130.00441884 -186.1872291 127.96163217 -186.55493164 125.92236328 C-188.05892667 117.21544789 -188.35751439 108.68011769 -188.3125 99.875 C-188.31100952 99.15244019 -188.30951904 98.42988037 -188.3079834 97.6854248 C-188.21104003 71.49190622 -183.69742645 46.6910095 -165 27 C-145.90484547 8.60307846 -121.41159833 2.25795278 -96 -2 C-94.8229248 -2.20133545 -94.8229248 -2.20133545 -93.62207031 -2.40673828 C-64.46488796 -7.12470748 -28.88949076 -6.31361986 0 0 Z " fill="#336791" transform="translate(1545,579)"/>
<path d="M0 0 C10.43795225 9.35845176 16.13632712 21.08677851 20.15234375 34.30688477 C20.3534375 34.9655957 20.55453125 35.62430664 20.76171875 36.30297852 C22.8492955 47.01224724 21.133679 57.74939141 15.4921875 67.04125977 C13.4823714 69.89709702 11.36537508 72.60535823 9.15234375 75.30688477 C8.72469727 75.82927734 8.29705078 76.35166992 7.85644531 76.88989258 C4.68138715 80.74810405 1.42957266 84.535413 -1.84765625 88.30688477 C-2.976875 89.62366211 -2.976875 89.62366211 -4.12890625 90.96704102 C-22.63624281 112.12307248 -46.07903621 128.00265186 -71.67114258 139.33984375 C-73.12987892 139.98797102 -74.58289114 140.64912801 -76.0300293 141.32275391 C-106.37995172 155.30696383 -140.01242606 157.31981979 -172.84765625 156.30688477 C-174.63670532 156.27232841 -176.42576603 156.23836221 -178.21484375 156.20532227 C-189.07729431 155.90209732 -199.55850745 153.88953758 -210.20068359 151.8034668 C-213.43409019 151.19686755 -216.67759455 150.69901523 -219.93041992 150.2097168 C-238.23878471 147.41525052 -255.39438219 141.71419178 -270.84765625 131.30688477 C-268.69467602 128.07741443 -268.32788014 127.85095193 -264.84765625 126.80688477 C-264.04787354 126.56099609 -263.24809082 126.31510742 -262.42407227 126.06176758 C-261.14874634 125.68810059 -261.14874634 125.68810059 -259.84765625 125.30688477 C-258.98132568 125.04488281 -258.11499512 124.78288086 -257.22241211 124.51293945 C-255.51658045 123.9979351 -253.80949598 123.48705883 -252.10107422 122.98071289 C-250.32389101 122.44929083 -248.55480377 121.89079431 -246.7890625 121.32250977 C-241.58109916 119.64638363 -236.41244764 118.63129303 -231 117.83422852 C-220.83318187 116.13345968 -210.80544827 113.42769394 -200.79052734 111.01000977 C-197.87148862 110.31257891 -194.94802425 109.63687181 -192.0234375 108.96313477 C-158.53863936 101.1076832 -127.19035624 89.29018212 -102.84765625 64.30688477 C-102.29078125 63.78352539 -101.73390625 63.26016602 -101.16015625 62.72094727 C-95.82598572 57.62337301 -91.34113975 51.98558115 -86.84375 46.16235352 C-82.1233748 40.05520142 -77.21204254 34.10109168 -72.32861328 28.12426758 C-71.00486555 26.49980695 -69.68936816 24.86863131 -68.375 23.23657227 C-63.78751347 17.55682704 -59.0114734 12.10873441 -54.05859375 6.74438477 C-52.35851329 4.87009111 -50.77154715 2.99027103 -49.22265625 0.99438477 C-35.27951852 -14.78337635 -15.64253459 -13.01355762 0 0 Z " fill="#346891" transform="translate(917.84765625,1245.693115234375)"/>
<path d="M0 0 C1.10370303 0.76402426 2.2023784 1.53534451 3.296875 2.3125 C22.18185836 14.97766798 44.51287624 22.60516752 67.046875 25.3125 C67.85108887 25.41401367 68.65530273 25.51552734 69.48388672 25.62011719 C103.42078076 29.67591188 140.68725797 29.62648126 174.37915039 23.74511719 C177.49940828 23.23911399 180.57730335 23.00839739 183.734375 22.875 C191.97371615 22.35215341 199.95633764 20.86392903 208.046875 19.3125 C209.84626671 18.9734938 211.64574952 18.63497085 213.4453125 18.296875 C222.61843827 16.57516713 222.61843827 16.57516713 231.77148438 14.75097656 C232.65513672 14.56889648 233.53878906 14.38681641 234.44921875 14.19921875 C235.24448975 14.03252686 236.03976074 13.86583496 236.85913086 13.6940918 C239.61131511 13.21404895 242.26099303 13.16587463 245.046875 13.3125 C241.32666438 18.12225208 237.33726197 21.7318018 232.484375 25.375 C231.74695068 25.93227783 231.00952637 26.48955566 230.24975586 27.0637207 C211.68914567 40.89833043 191.85325189 52.1342291 171.046875 62.1875 C169.91306396 62.73535156 168.77925293 63.28320312 167.61108398 63.84765625 C158.59913097 68.1494946 149.64279453 72.09759055 139.984375 74.6875 C138.87618408 74.99167847 138.87618408 74.99167847 137.74560547 75.30200195 C129.67075051 77.48144 121.52557986 79.38513939 113.37475586 81.25732422 C112.3513208 81.49596191 111.32788574 81.73459961 110.2734375 81.98046875 C109.36158691 82.18953857 108.44973633 82.3986084 107.51025391 82.61401367 C105.07589522 83.21066437 105.07589522 83.21066437 103.13232422 84.33105469 C100.28015988 85.67332824 97.57559701 85.9448608 94.453125 86.34765625 C93.17566406 86.51716797 91.89820313 86.68667969 90.58203125 86.86132812 C89.23702731 87.03292982 87.89197463 87.20415 86.546875 87.375 C83.91101405 87.71677971 81.27580735 88.06314182 78.640625 88.41015625 C77.47208984 88.55976807 76.30355469 88.70937988 75.09960938 88.86352539 C72.675205 89.22008966 70.41332875 89.70859976 68.046875 90.3125 C65.56473573 90.49369904 63.0945651 90.63790966 60.609375 90.75 C55.00027345 91.02705617 49.43274292 91.45350017 43.84953308 92.05757141 C31.96218451 93.32525879 20.18221123 93.67264306 8.234375 93.625 C6.79943695 93.62226578 6.79943695 93.62226578 5.33551025 93.61947632 C-15.15999059 93.55391293 -36.65301443 93.10039054 -55.953125 85.3125 C-57.0676001 84.87006958 -57.0676001 84.87006958 -58.20458984 84.41870117 C-60.56675939 83.25693138 -62.1802977 82.26474056 -63.953125 80.3125 C-64.99604562 76.63223804 -64.80397103 73.16823538 -64.578125 69.375 C-64.54501221 68.34536133 -64.51189941 67.31572266 -64.4777832 66.25488281 C-64.17348594 58.51686457 -63.52125732 50.9050394 -61.953125 43.3125 C-61.77007813 42.37792969 -61.58703125 41.44335938 -61.3984375 40.48046875 C-58.680702 28.75394337 -53.03464051 18.14435159 -42.953125 11.3125 C-33.33368396 5.34972065 -10.99464703 -6.28265545 0 0 Z " fill="#346891" transform="translate(1562.953125,1229.6875)"/>
<path d="M0 0 C1.56439819 0.00410889 1.56439819 0.00410889 3.16040039 0.00830078 C11.87217962 0.12512927 19.8466568 1.30503059 28.3125 3.3125 C29.13105469 3.44398438 29.94960938 3.57546875 30.79296875 3.7109375 C42.48851695 5.62824048 53.49088925 12.61499178 61.3125 21.3125 C64.43496027 25.73892223 65.01603481 29.0029208 64.84375 34.34375 C63.10934627 44.03600615 54.99780376 51.76316622 47.3125 57.3125 C33.5608355 65.51244844 19.06160666 69.87146048 3.04296875 66.65625 C-14.65547757 61.27480892 -27.88587725 49.33461567 -36.6875 33.3125 C-37.06519531 32.68859375 -37.44289063 32.0646875 -37.83203125 31.421875 C-39.88648707 26.35609353 -39.44919045 20.62648101 -38.6875 15.3125 C-35.48978894 8.86711364 -29.1785283 4.9721477 -22.6875 2.3125 C-15.1890152 0.37925618 -7.71144529 -0.0414425 0 0 Z " fill="#FDFDFE" transform="translate(802.6875,615.6875)"/>
<path d="M0 0 C0.85625977 -0.00475342 1.71251953 -0.00950684 2.59472656 -0.0144043 C12.52292648 0.01166157 20.87416282 1.29201667 28.78515625 7.73046875 C31.66886808 10.70962258 32.72500242 12.69480359 33.5625 16.8125 C32.52575281 28.26083595 23.90006243 37.69347654 15.8125 45.125 C12.2938526 47.77832786 8.68327981 50.02489606 4.8125 52.125 C3.69488281 52.73794922 3.69488281 52.73794922 2.5546875 53.36328125 C-8.19484916 58.98328616 -19.11627073 59.86344448 -30.875 56.5625 C-44.13559123 51.93026395 -55.84716895 43.98363631 -62.1875 31.125 C-63.25867831 27.31476844 -62.92402239 24.58425223 -61.14453125 21.05859375 C-54.29720122 10.95063037 -41.88979922 5.14103834 -30.2199707 2.76367188 C-26.88457345 2.14486842 -23.54326581 1.62331206 -20.1875 1.125 C-19.34832031 0.99222656 -18.50914063 0.85945312 -17.64453125 0.72265625 C-11.79211675 -0.03349642 -5.89187349 0.02709029 0 0 Z " fill="#FCFDFD" transform="translate(1460.1875,601.875)"/>
<path d="M0 0 C0.66 0.33 1.32 0.66 2 1 C-7.24 10.24 -16.48 19.48 -26 29 C-26.66 28.67 -27.32 28.34 -28 28 C-26.91332031 26.93072266 -26.91332031 26.93072266 -25.8046875 25.83984375 C-19.58941985 19.74924359 -19.58941985 19.74924359 -13.8125 13.25 C-11.1183112 9.99191122 -8.05795662 7.30139139 -4.83203125 4.578125 C-3.13809049 3.11895215 -1.55835516 1.60177682 0 0 Z " fill="#4E7B9F" transform="translate(217,207)"/>
<path d="M0 0 C0.66 0.33 1.32 0.66 2 1 C-3.94 6.94 -9.88 12.88 -16 19 C-16 14.80130728 -14.19810866 13.66463027 -11.375 10.625 C-10.9207666 10.13475342 -10.4665332 9.64450684 -9.99853516 9.1394043 C-6.85830473 5.79321137 -3.64356736 2.78061719 0 0 Z " fill="#4F7CA0" transform="translate(877,1239)"/>
</svg>
